<?xml version="1.0" standalone="no"?>
<!DOCTYPE svg PUBLIC "-//W3C//DTD SVG 1.1//EN" "http://www.w3.org/Graphics/SVG/1.1/DTD/svg11.dtd" >
<!--
2013-9-30: Created.
-->
<svg>
<metadata>
Created by iconfont
</metadata>
<defs>

<font id="iconfont" horiz-adv-x="1024" >
  <font-face
    font-family="iconfont"
    font-weight="500"
    font-stretch="normal"
    units-per-em="1024"
    ascent="896"
    descent="-128"
  />
    <missing-glyph />
    
    <glyph glyph-name="jiazai" unicode="&#59012;" d="M964.388184 418.659953a72.848985 72.848985 0 0 0 22.16189-53.612757c0-20.991625-7.387297-38.691881-22.16189-53.612757a72.044428 72.044428 0 0 0-53.466474-22.16189c-20.845342 0-38.618739 7.460438-53.612757 22.16189a72.848985 72.848985 0 0 0-22.16189 53.612757c0 20.991625 7.387297 38.691881 22.16189 53.612757a72.848985 72.848985 0 0 0 53.612757 22.161889c20.7722 0 38.765022-7.460438 53.466474-22.161889m-99.911359-348.885199a73.141551 73.141551 0 0 0-22.527598-53.393332 72.995268 72.995268 0 0 0-53.393332-22.527598c-20.991625 0-38.618739 7.460438-53.612757 22.16189a72.848985 72.848985 0 0 0-22.16189 53.612757c0 20.991625 7.460438 38.618739 22.16189 53.612757a72.848985 72.848985 0 0 0 53.612757 22.16189c20.991625 0 38.691881-7.460438 53.612757-22.16189a72.410136 72.410136 0 0 0 22.308173-53.466474m56.904127 590.179175c0-36.717059-13.019196-68.094784-39.13073-93.913751a128.070856 128.070856 0 0 0-93.621185-38.691881c-36.643917 0-68.021642 12.946055-93.913752 38.691881a127.924573 127.924573 0 0 0-38.618739 93.913751c0 36.351351 12.946055 67.582793 38.618739 93.621186a127.924573 127.924573 0 0 0 93.986893 39.13073c36.351351 0 67.582793-13.092338 93.548044-39.203872 26.111534-25.818968 39.13073-57.05041 39.13073-93.548044m-374.192175-658.566525a72.848985 72.848985 0 0 0 22.088748-53.612757c0-20.991625-7.387297-38.691881-22.088748-53.612757a72.848985 72.848985 0 0 0-53.685899-22.16189c-20.991625 0-38.618739 7.460438-53.612757 22.16189a72.410136 72.410136 0 0 0-22.16189 53.612757c0 20.991625 7.460438 38.618739 22.16189 53.612757a72.848985 72.848985 0 0 0 53.612757 22.16189c20.991625 0 38.765022-7.460438 53.685899-22.16189M574.251151 862.848592c22.088748-22.16189 33.206264-48.931698 33.206264-80.675131 0-31.743433-11.117516-58.366958-33.206264-80.601989a109.566043 109.566043 0 0 0-80.60199-33.133123c-31.743433 0-58.366958 11.117516-80.601989 33.133123a109.346619 109.346619 0 0 0-33.206264 80.601989c0 31.743433 11.190657 58.366958 33.206264 80.675131A109.785468 109.785468 0 0 0 493.57602 895.981715c31.59715 0 58.366958-11.117516 80.601989-33.133123M252.208901 123.387511a72.848985 72.848985 0 0 0 22.088749-53.612757c0-20.991625-7.387297-38.691881-22.088749-53.685898a72.848985 72.848985 0 0 0-53.685898-22.088749 73.141551 73.141551 0 0 0-53.393332 22.527598 72.995268 72.995268 0 0 0-22.454457 53.393332c0 20.991625 7.387297 38.618739 22.088749 53.612757a72.848985 72.848985 0 0 0 53.685898 22.088748c20.991625 0 38.911305-7.387297 53.75904-22.235031M265.37438 727.024732c18.577954-18.577954 27.866931-40.959269 27.866931-66.92452 0-26.038392-9.288977-48.273424-27.866931-66.99766-18.577954-18.651096-40.959269-28.013214-66.99766-28.013214-25.965251 0-48.273424 9.215835-66.924519 27.940072a91.134373 91.134373 0 0 0-27.866931 66.924519c0 25.965251 9.215835 48.273424 27.866931 66.92452 18.724237 18.724237 40.959269 27.940072 66.924519 27.940072 26.038392 0 48.273424-9.215835 66.99766-27.793789M129.98937 418.659953a72.848985 72.848985 0 0 0 22.161889-53.612757c0-20.991625-7.460438-38.691881-22.161889-53.612757a72.190711 72.190711 0 0 0-53.612757-22.16189c-20.991625 0-38.691881 7.460438-53.612757 22.16189A72.190711 72.190711 0 0 0 0.601966 364.974054c0 20.991625 7.460438 38.691881 22.16189 53.612757a72.848985 72.848985 0 0 0 53.612757 22.16189c20.991625 0 38.765022-7.460438 53.612757-22.16189"  horiz-adv-x="1024" />

    
    <glyph glyph-name="xiaolaba" unicode="&#58920;" d="M694.851515 235.088482c-0.119727 1.88493-0.119727 1.88493-0.119727 1.88493-0.459464 2.02103-3.911076 14.234189-7.66968 27.139104l-127.403668 437.412235c-3.758604 12.903891-7.767917 27.232225-8.91095 31.840172 0 0 0 0-1.671059 3.722788-9.188266 20.930705-29.880541 34.462906-52.720735 34.462906-11.097756 0-21.908986-3.222391-31.407314-9.331529-3.364631-2.219551-3.364631-2.219551-3.364631-2.219551-3.38612-3.084245-14.558577-12.707416-24.826432-21.38096L286.913569 612.002854c-10.268878-8.67559-29.567409-17.245779-42.887786-19.047822 0 0-3.490497-0.471744-16.473183-4.266164-54.677297-15.918551-99.856265-52.17122-127.254266-102.074793C72.900334 436.685943 66.576301 379.09734 82.494852 324.443579c15.918551-54.677297 52.17122-99.856265 102.075817-127.254266 8.239662-4.526083 16.700357-8.42488 25.307386-11.795651 0.268106-0.12689 0.432859-0.369414 0.707105-0.488117 114.00859-48.925293 181.549869-228.589209 182.218088-230.40353 3.651157-9.856485 13.007245-15.966647 22.935362-15.966647 2.816139 0 5.680373 0.50142 8.472975 1.527796 12.649088 4.653997 19.116383 18.711154 14.462387 31.360242-2.333138 6.304589-45.965891 122.040521-126.758985 201.140043 11.664667 1.394766 23.299659 3.470031 34.802644 6.821359 13.865799 4.009314 19.098987 6.497994 19.098987 6.497994 12.138458 5.77247 33.025161 9.534144 46.414099 8.362458l202.670909-17.762549c13.388938-1.172709 26.083052-2.186805 28.209482-2.252297 0 0 0 0 1.88493 0.286526 28.973892 4.367471 49.999764 28.734438 49.999764 57.970296C694.993754 232.917026 694.875051 234.659717 694.851515 235.088482zM343.757205 229.404016c0 0 0 0-10.667967-3.098571-42.147936-12.267395-86.514399-7.374968-124.986619 13.722536-38.47222 21.12104-66.419735 55.942103-78.686107 98.06548-12.267395 42.147936-7.398504 86.538959 13.722536 124.986619 21.12104 38.47222 55.942103 66.419735 98.06548 78.686107 9.925047 2.8847 9.925047 2.8847 9.925047 2.8847 11.831466 1.451048 24.662703-7.897877 28.511357-20.777209l77.935-260.835633C361.423563 250.161782 355.206978 235.02606 343.757205 229.404016zM642.488937 225.315908c-1.521656-1.069355-13.722536-0.984421-27.111474 0.189312L412.723949 243.270838c-13.388938 1.173732-27.494191 12.671601-31.341822 25.549909l-78.650291 263.22096c-3.848655 12.878309 1.401929 30.513968 11.670807 39.189557l154.840554 130.847094c10.265808 8.67559 19.346627 16.381086 20.181645 17.121959 0.835018 0.740874 3.555989 2.671852 5.262864 3.472078 0 0 0 0 1.671059 0 4.200672 0 6.921643-2.839675 8.018627-5.298679 0.119727-0.286526 0.334621-0.906649 0.524956-1.981121 0.143263-0.954745 0.143263-0.954745 0.143263-0.954745 0.274246-1.036609 3.576455-12.444427 7.333012-25.348318l126.71703-435.072957C642.850164 241.113709 644.010593 226.385263 642.488937 225.315908zM741.821269 829.464631 765.152651 817.343569 671.827125 696.141136ZM740.714052 549.508521 948.738899 654.945899 942.933683 622.956324ZM933.573501 305.119465 769.880325 392.501628 936.224888 343.856721Z"  horiz-adv-x="1024" />

    
    <glyph glyph-name="jianhao" unicode="&#58886;" d="M787.6 339.9H237.1c-23.1 0-42 18.9-42 42s18.9 42 42 42h550.5c23.1 0 42-18.9 42-42s-18.9-42-42-42z"  horiz-adv-x="1024" />

    
    <glyph glyph-name="daoqi" unicode="&#59019;" d="M512-93.86666666999997H155.73333333c-48.224 0-87.46666667 39.65866667-87.46666666 88.40533334V705.1946666700001c0 48.74666667 39.24266667 88.40533333 87.46666666 88.40533333h177.06666667c18.848 0 34.13333333-15.28533333 34.13333333-34.13333333s-15.28533333-34.13333333-34.13333333-34.13333334H155.73333333c-10.592 0-19.2-9.03466667-19.2-20.13866666v-710.66666667c0-11.104 8.608-20.13866667 19.2-20.13866667h356.26666667c18.848 0 34.13333333-15.28533333 34.13333333-34.13333333S530.848-93.86666666999997 512-93.86666666999997zM921.6 315.73333333000005c-18.848 0-34.13333333 15.28533333-34.13333333 34.13333334V705.1946666700001c0 11.104-8.608 20.13866667-19.2 20.13866666H691.2c-18.848 0-34.13333333 15.28533333-34.13333333 34.13333334s15.28533333 34.13333333 34.13333333 34.13333333h177.06666667c48.224 0 87.46666667-39.65866667 87.46666666-88.40533333V349.86666667c0-18.848-15.28533333-34.13333333-34.13333333-34.13333334zM785.06666667 554.66666667H341.33333333c-18.77333333 0-34.13333333 15.36-34.13333333 34.13333333s15.36 34.13333333 34.13333333 34.13333333h443.73333334c18.77333333 0 34.13333333-15.36 34.13333333-34.13333333s-15.36-34.13333333-34.13333333-34.13333333zM649.536 429.51466667H341.33333333c-18.77333333 0-34.13333333 15.36-34.13333333 34.13333333s15.36 34.13333333 34.13333333 34.13333333h308.20266667c18.77333333 0 34.13333333-15.36 34.13333333-34.13333333s-15.36-34.13333333-34.13333333-34.13333333zM477.86666667 304.352H341.36533333c-18.77333333 0-34.13333333 15.36-34.13333333 34.13333333s15.36 34.13333333 34.13333333 34.13333334H477.86666667c18.77333333 0 34.13333333-15.36 34.13333333-34.13333334s-15.36-34.13333333-34.13333333-34.13333333zM409.6 179.20000000000005h-68.26666667c-18.77333333 0-34.13333333 15.36-34.13333333 34.13333333s15.36 34.13333333 34.13333333 34.13333334h68.26666667c18.77333333 0 34.13333333-15.36 34.13333333-34.13333334s-15.36-34.13333333-34.13333333-34.13333333zM592 725.33333333H432c-23.46666667 0-42.66666667 19.2-42.66666667 42.66666667s19.2 42.66666667 42.66666667 42.66666667h160c23.46666667 0 42.66666667-19.2 42.66666667-42.66666667s-19.2-42.66666667-42.66666667-42.66666667zM537.6 776.53333333h-51.2c-23.46666667 0-42.66666667 19.2-42.66666667 42.66666667s19.2 42.66666667 42.66666667 42.66666667h51.2c23.46666667 0 42.66666667-19.2 42.66666667-42.66666667s-19.2-42.66666667-42.66666667-42.66666667zM262.4 554.66666667h-46.93333333c-5.86666667 0-10.66666667 4.8-10.66666667 10.66666666v46.93333334c0 5.86666667 4.8 10.66666667 10.66666667 10.66666666h46.93333333c5.86666667 0 10.66666667-4.8 10.66666667-10.66666666v-46.93333334c0-5.86666667-4.8-10.66666667-10.66666667-10.66666666zM262.4 429.51466667h-46.93333333c-5.86666667 0-10.66666667 4.8-10.66666667 10.66666666v46.93333334c0 5.86666667 4.8 10.66666667 10.66666667 10.66666666h46.93333333c5.86666667 0 10.66666667-4.8 10.66666667-10.66666666v-46.93333334c0-5.86666667-4.8-10.66666667-10.66666667-10.66666666zM262.4 304.352h-46.93333333c-5.86666667 0-10.66666667 4.8-10.66666667 10.66666667v46.93333333c0 5.86666667 4.8 10.66666667 10.66666667 10.66666667h46.93333333c5.86666667 0 10.66666667-4.8 10.66666667-10.66666667v-46.93333333c0-5.86666667-4.8-10.66666667-10.66666667-10.66666667zM262.4 179.20000000000005h-46.93333333c-5.86666667 0-10.66666667 4.8-10.66666667 10.66666667v46.93333333c0 5.86666667 4.8 10.66666667 10.66666667 10.66666667h46.93333333c5.86666667 0 10.66666667-4.8 10.66666667-10.66666667v-46.93333333c0-5.86666667-4.8-10.66666667-10.66666667-10.66666667zM716.26666667-93.86666666999997c-63.968 0-124.096 24.90666667-169.33333334 70.13333334S476.8 81.63199999999995 476.8 145.60000000000002s24.90666667 124.096 70.13333333 169.33333333S652.29866667 385.06666667 716.26666667 385.06666667s124.096-24.90666667 169.33333333-70.13333334S955.73333333 209.56799999999998 955.73333333 145.60000000000002s-24.90666667-124.096-70.13333333-169.33333333S780.23466667-93.86666666999997 716.26666667-93.86666666999997z m0 410.66666667C621.86666667 316.79999999999995 545.06666667 240 545.06666667 145.60000000000002S621.86666667-25.600000000000023 716.26666667-25.600000000000023 887.46666667 51.200000000000045 887.46666667 145.60000000000002 810.66666667 316.79999999999995 716.26666667 316.79999999999995zM809.96266667 112.10666666999998H716.90666667c-18.848 0-34.13333333 15.28533333-34.13333334 34.13333333v93.056c0 18.848 15.28533333 34.13333333 34.13333334 34.13333333s34.13333333-15.28533333 34.13333333-34.13333333v-58.92266667h58.92266667c18.848 0 34.13333333-15.28533333 34.13333333-34.13333333s-15.27466667-34.13333333-34.13333333-34.13333333z"  horiz-adv-x="1024" />

    
    <glyph glyph-name="qitafuwu" unicode="&#58923;" d="M858.4 10.3H603.1c-35.2 0-63.8 28.7-63.8 63.8V292.9c0 35.2 28.7 63.8 63.8 63.8h218.7c35.2 0 63.8-28.7 63.8-63.8V147c0-15.1-12.3-27.3-27.3-27.3-15.1 0-27.3 12.3-27.3 27.3V292.9c0 5-4.1 9.1-9.1 9.1H603.1c-5 0-9.1-4.1-9.1-9.1v-218.7c0-5 4.1-9.1 9.1-9.1h255.2c15.1 0 27.3-12.3 27.3-27.3 0.1-15.2-12.2-27.5-27.2-27.5zM420.9 10.3H202.2c-35.2 0-63.8 28.7-63.8 63.8V292.9c0 35.2 28.7 63.8 63.8 63.8h218.7c35.2 0 63.8-28.7 63.8-63.8v-218.7c0-35.2-28.7-63.9-63.8-63.9zM202.2 302c-5 0-9.1-4.1-9.1-9.1v-218.7c0-5 4.1-9.1 9.1-9.1h218.7c5 0 9.1 4.1 9.1 9.1V292.9c0 5-4.1 9.1-9.1 9.1H202.2zM821.8 411.3H603.1c-35.2 0-63.8 28.7-63.8 63.8V693.8c0 35.2 28.7 63.8 63.8 63.8h218.7c35.2 0 63.8-28.7 63.8-63.8v-218.7c0.1-35.1-28.6-63.8-63.8-63.8zM603.1 703c-5 0-9.1-4.1-9.1-9.1v-218.7c0-5 4.1-9.1 9.1-9.1h218.7c5 0 9.1 4.1 9.1 9.1V693.8c0 5-4.1 9.1-9.1 9.1H603.1zM457.3 411.3H202.2c-35.2 0-63.8 28.7-63.8 63.8V693.8c0 35.2 28.7 63.8 63.8 63.8h218.7c35.2 0 63.8-28.7 63.8-63.8V548c0-15.1-12.3-27.3-27.3-27.3-15.1 0-27.3 12.3-27.3 27.3V693.8c0 5-4.1 9.1-9.1 9.1H202.2c-5 0-9.1-4.1-9.1-9.1v-218.7c0-5 4.1-9.1 9.1-9.1h255.2c15.1 0 27.3-12.3 27.3-27.3 0-15.1-12.3-27.4-27.4-27.4z"  horiz-adv-x="1024" />

    
    <glyph glyph-name="guanjiaogangwei" unicode="&#58917;" d="M973.810625 749.16H338.9759375v-152.0878125h50.720625V701.098125H923.1125v-458.525625H570.7165625c-8.1028125 20.758125-18.504375 37.8703125-30.1921875 51.97125V500.8396875h-47.8415625v-166.275c-48.13125 27.4378125-96.3646875 25.9725-96.3646875 25.9725L341.2240625 150.75l-14.874375 198.946875h-19.6584375l-14.11125-188.8603125-63.8259375 199.700625S81.7278125 365.25374999999997 50.189375 199.73531249999996v-180.8934375H582.865625V194.52656249999995h390.945V749.16zM819.576875 452.8003125h47.8415625v-195.315h-47.8415625zM707.9628125 666.3740625h47.840625v-408.88875h-47.840625zM604.325 583.618125h47.8275v-326.1534375H604.325zM316.52 379.9753125c50.7421875 0 91.875 41.1403125 91.875 91.875 0 50.7421875-41.1328125 91.875-91.875 91.875-50.7346875 0-91.875-41.1328125-91.875-91.875 0-50.7346875 41.1403125-91.875 91.875-91.875z"  horiz-adv-x="1024" />

    
    <glyph glyph-name="yiliaowenjian" unicode="&#58939;" d="M409.6 307.20000000000005c-12.8 0-25.6-12.8-25.6-25.6s12.8-25.6 25.6-25.6h76.8v-76.8c0-12.8 12.8-25.6 25.6-25.6s25.6 12.8 25.6 25.6v76.8h76.8c12.8 0 25.6 12.8 25.6 25.6s-12.8 25.6-25.6 25.6h-76.8v76.8c0 12.8-12.8 25.6-25.6 25.6s-25.6-12.8-25.6-25.6v-76.8h-76.8zM947.2 563.2h-25.6v104.96c0 25.6-23.04 48.64-51.2 48.64h-51.2v51.2c0 28.16-23.04 51.2-51.2 51.2h-614.4c-28.16 0-51.2-23.04-51.2-51.2v-153.6h-25.6c-15.36 0-25.6-10.24-25.6-25.6v-563.2c0-15.36 10.24-25.6 25.6-25.6h870.4c15.36 0 25.6 10.24 25.6 25.6v512c0 15.36-10.24 25.6-25.6 25.6z m-76.8 0h-396.8c-7.68 0-15.36 2.56-23.04 5.12l-81.92 40.96c-7.68 2.56-15.36 5.12-23.04 5.12h-89.6v51.2h614.4v-102.4z m-716.8 204.8h614.4v-51.2h-512c-28.16 0-51.2-20.48-51.2-48.64v-53.76h-51.2v153.6z m768-716.8h-819.2v512h243.2l81.92-40.96c15.36-7.68 30.72-10.24 46.08-10.24h448v-460.8z"  horiz-adv-x="1024" />

    
    <glyph glyph-name="chaxuntongji" unicode="&#58882;" d="M818.09339608-77.50768811h-648.07462581a19.63862474 19.63862474 0 0 0 0 39.27724946h648.07462581a19.63862474 19.63862474 0 0 0 0-39.27724946zM513.69470859 69.78199875999996H81.64495759a39.27724947 39.27724947 0 0 0-39.27725084 39.27725085V737.4952507a39.27724947 39.27724947 0 0 0 39.27725084 39.27724946h844.4608759a39.27724947 39.27724947 0 0 0 39.27725085-39.27724946v-274.94075039h-39.27725085V737.4952507H81.64495759v-628.43600109h432.049751zM513.69470859 393.81931236H189.65739499a19.63862474 19.63862474 0 0 0 0 39.27725085H513.69470859a19.63862474 19.63862474 0 0 0 0-39.27725085zM660.98439546 531.2896882499999h-471.32700047a19.63862474 19.63862474 0 0 0 0 39.27724948h471.32700047a19.63862474 19.63862474 0 0 0 0-39.27724948zM464.59814539 256.34893787h-274.9407504a19.63862474 19.63862474 0 0 0 0 39.27724945h274.9407504a19.63862474 19.63862474 0 0 0 0-39.27724945zM813.63542882 158.35219875999996l58.18924537 58.16960705 188.84501853-188.86465683-58.16960706-58.16960706zM740.91360015 115.53999541999997a173.60544474 173.60544474 0 1 0 122.93779258 50.86403945 173.21267285 173.21267285 0 0 0-122.93779258-50.86403945z m0 308.13002731a134.32819526 134.32819526 0 1 1 95.05094441-39.27725085A134.13180932 134.13180932 0 0 1 740.91360015 423.27724947z"  horiz-adv-x="1027" />

    
    <glyph glyph-name="finance" unicode="&#58908;" d="M518.85714313 473.14285687L443.42857156 404.57142844l-75.42857156 68.57142844c-13.71428531 13.71428531-34.28571469 13.71428531-48-1e-8-13.71428531-6.85714313-13.71428531-34.28571469 0-48l41.14285687-41.14285687c-13.71428531 0-20.57142844-13.71428531-20.57142843-27.42857156 0-20.57142844 13.71428531-34.28571469 34.28571469-34.28571375h34.28571375v-41.14285781H374.85714312c-20.57142844 0-34.28571469-13.71428531-34.28571468-34.28571375s13.71428531-34.28571469 34.28571469-34.28571469h34.28571375v-34.28571375c0-20.57142844 13.71428531-34.28571469 34.28571468-34.28571469s34.28571469 13.71428531 34.28571375 34.28571469v34.28571375H512c20.57142844 0 34.28571469 13.71428531 34.28571469 34.28571469s-13.71428531 34.28571469-34.28571469 34.28571375h-34.28571469v41.14285781H512c20.57142844 0 34.28571469 13.71428531 34.28571469 34.28571375 0 13.71428531-6.85714313 27.42857156-20.57142938 27.42857156l41.14285781 41.14285687c13.71428531 13.71428531 13.71428531 41.14285687 0 48-13.71428531 13.71428531-34.28571469 13.71428531-48 0zM752 658.28571469h-617.14285688C80 658.28571469 32 610.2857146900001 32 555.42857156v-480c0-54.85714313 48-102.85714313 102.85714313-102.85714312h617.14285687c54.85714313 0 102.85714313 48 102.85714313 102.85714312v480c0 54.85714313-48 102.85714313-102.85714313 102.85714313z m34.28571469-582.85714313c0-20.57142844-13.71428531-34.28571469-34.28571469-34.28571468h-617.14285688c-20.57142844 0-34.28571469 13.71428531-34.28571468 34.28571468v480c0 20.57142844 13.71428531 34.28571469 34.28571468 34.28571375h617.14285688c20.57142844 0 34.28571469-13.71428531 34.28571469-34.28571375v-480zM889.14285688 795.42857156h-617.14285688c-20.57142844 0-34.28571469-13.71428531-34.28571469-34.28571469s13.71428531-34.28571469 34.28571469-34.28571375h617.14285688c20.57142844 0 34.28571469-13.71428531 34.28571468-34.28571468v-480c0-20.57142844 13.71428531-34.28571469 34.28571375-34.28571375s34.28571469 13.71428531 34.28571469 34.28571375v480c0 54.85714313-48 102.85714313-102.85714312 102.85714312z"  horiz-adv-x="1024" />

    
    <glyph glyph-name="chuangkoufuwu" unicode="&#58911;" d="M59.5 756.857v-745.715h905V756.857h-905z m838.035-681.981H126.481V691.807h771.054v-616.931zM780.188 102.65999999999997V263.639C748.42 410.921 592.359 406.716 592.359 406.716l-55.911-188.107-14.556 177.218h-19.791l-13.798-167.923-64.67 178.813s-148.052 4.205-179.82-143.077v-160.979M511.992 426.286c51.101 0 92.508 41.432 92.508 92.508 0 51.118-41.407 92.532-92.508 92.532-51.077 0-92.508-41.415-92.508-92.532 0-51.094 41.431-92.508 92.508-92.508z"  horiz-adv-x="1024" />

    
    <glyph glyph-name="xunkong" unicode="&#58913;" d="M418.75569778 182.97742223c0-8.00881778 6.48874667-14.51576889 14.49756444-14.51576889 8.02702222 0 14.51576889 6.50695111 14.51576889 14.51576889 0 1.21742222-0.16611555 2.39502222-0.45056 3.52938666h-28.11335111c-0.28330667-1.13208889-0.44942222-2.30968889-0.44942222-3.52938666zM454.45347555 168.46165334c-8.00881778 0-14.50666667-6.50808889-14.50666666-14.52600889 0-7.99971555 6.49784889-14.50666667 14.50666666-14.50666666 8.01792 0 14.51576889 6.50695111 14.5157689 14.50666666 0 8.02019555-6.49784889 14.52600889-14.5157689 14.52600889zM487.11111111 151.58272001c-8.03612445 0-14.53283555-6.47850667-14.53283556-14.51576889 0-8.00881778 6.49784889-14.50666667 14.53283556-14.50666667 7.99061333 0 14.48846222 6.49784889 14.48846222 14.50666667 0 8.03498667-6.49784889 14.51576889-14.48846222 14.51576889zM524.37333333 139.37777778999998c-8.00881778 0-14.48846222-6.48874667-14.48846222-14.50666667S516.36451555 110.36444444999995 524.37333333 110.36444444999995c8.03612445 0 14.53283555 6.48874667 14.53283556 14.50666667s-6.49671111 14.50666667-14.53283556 14.50666667zM575.86688 115.63576889000001c0 8.00881778-6.49784889 14.49756445-14.51576889 14.49756445-8.00881778 0-14.50666667-6.48874667-14.50666666-14.49756445 0-8.02702222 6.49784889-14.51576889 14.50666666-14.51576888 8.01792 0 14.51576889 6.48874667 14.51576889 14.51576888zM612.30193778 110.36444444999995c0 8.00881778-6.50695111 14.50666667-14.51576889 14.50666667S583.2704 118.37326223000002 583.2704 110.36444444999995c0-8.01792 6.50808889-14.51576889 14.51690667-14.51576889s14.51463111 6.49784889 14.51463111 14.51576889zM652.00014222 104.39111112c0 8.00881778-6.50695111 14.50666667-14.51576889 14.50666667s-14.51576889-6.49784889-14.51576888-14.50666667c0-8.01792 6.50695111-14.51576889 14.51576888-14.51576889s14.51576889 6.49784889 14.51576889 14.51576889zM694.40056889 101.12000001000001c0 8.01792-6.48760889 14.51576889-14.49642667 14.51576888-8.02816 0-14.51690667-6.49784889-14.51690667-14.51576888 0-8.00881778 6.48874667-14.50666667 14.51690667-14.50666667 8.00654222 0 14.49642667 6.49784889 14.49642667 14.50666667zM734.09763555 101.12000001000001c0 8.01792-6.48874667 14.51576889-14.49756444 14.51576888-8.02702222 0-14.53283555-6.49784889-14.53283556-14.51576888 0-8.00881778 6.50808889-14.50666667 14.53283556-14.50666667 8.00881778 0 14.49756445 6.49784889 14.49756444 14.50666667zM773.83111111 101.12000001000001c0 8.01792-6.50695111 14.51576889-14.53283556 14.51576888-8.00881778 0-14.49642667-6.49784889-14.49642666-14.51576888 0-8.00881778 6.48760889-14.50666667 14.49642666-14.50666667 8.02588445 0 14.53283555 6.49784889 14.53283556 14.50666667zM800.08874667 81.33290667000006c8.00881778 0 14.50666667 6.50695111 14.50666666 14.51576889S808.09756445 110.36444444999995 800.08874667 110.36444444999995c-8.03612445 0-14.51576889-6.50695111-14.51576889-14.51576889s6.48078222-14.51576889 14.51576889-14.51576889zM846.14257778 72.08049778999998a14.49642667 14.49642667 0 0 1-14.51576889 14.51690666c-8.00881778 0-14.48846222-6.48874667-14.48846222-14.51690666 0-8.00881778 6.47964445-14.49642667 14.48846222-14.49642667 8.03498667-0.00227555 14.51576889 6.48647111 14.51576889 14.49642667zM852.28430222 28.52408889000003c8.01792 0 14.50666667 6.49784889 14.50666667 14.53169778 0 7.99061333-6.48874667 14.48846222-14.50666667 14.48846222s-14.50666667-6.49784889-14.50666667-14.48846222c0-8.03384889 6.48874667-14.53169778 14.50666667-14.53169778zM855.01383111 20.657493339999974c-8.02702222 0-14.51576889-6.48874667-14.51576889-14.50666667s6.48874667-14.50666667 14.51576889-14.50666666c8.00881778 0 14.49756445 6.48874667 14.49756444 14.50666666s-6.48874667 14.50666667-14.49756444 14.50666667zM837.77763555-14.133475549999957c-8.02702222 0-14.51576889-6.49784889-14.51576888-14.48846222 0-8.03612445 6.48874667-14.53169778 14.51576888-14.53169778 8.00881778 0 14.50666667 6.49784889 14.50666667 14.53169778 0 7.99061333-6.49784889 14.48846222-14.50666667 14.48846222zM802.60437333-36.95957333000001c-8.02702222 0-14.51576889-6.50695111-14.51576888-14.51576888S794.57735111-65.99111111000002 802.60437333-65.99111111000002c8.00881778 0 14.51576889 6.50695111 14.51576889 14.5157689s-6.50695111 14.51576889-14.51576889 14.51576888zM765.62659555-48.92444444c-8.00881778 0-14.51576889-6.50695111-14.51576888-14.51576889s6.50695111-14.51576889 14.51576888-14.51576888 14.51576889 6.50695111 14.5157689 14.51576888S773.63541333-48.92444444 765.62659555-48.92444444zM730.27584-57.65347555000005c-8.03612445 0-14.51576889-6.48874667-14.51576889-14.49756444a14.49642667 14.49642667 0 0 1 14.51576889-14.51576889c8.00881778 0 14.48846222 6.48874667 14.48846222 14.51576889 0 8.00881778-6.47964445 14.49756445-14.48846222 14.49756444zM690.57763555-63.440213330000006c-8.03612445 0-14.51576889-6.49784889-14.51576888-14.51576888 0-8.00881778 6.47850667-14.50666667 14.51576888-14.50666667 8.00881778 0 14.48846222 6.49784889 14.48846223 14.50666667 0.00113778 8.01792-6.47964445 14.51576889-14.48846223 14.51576888zM647.60945778-66.00931555c-8.00768 0-14.51576889-6.48874667-14.51576889-14.50666666s6.50808889-14.50666667 14.51576889-14.50666667c8.02816 0 14.51690667 6.48874667 14.51690667 14.50666667s-6.49102222 14.50666667-14.51690667 14.50666666zM608.45283555-66.00931555c-8.00881778 0-14.51690667-6.48874667-14.51690666-14.50666666s6.50808889-14.50666667 14.51690666-14.50666667 14.51576889 6.48874667 14.5157689 14.50666667-6.50581333 14.50666667-14.5157689 14.50666666zM566.93304889-60.51612444c-7.99061333 0-14.48846222-6.50808889-14.48846222-14.52600889 0-7.99971555 6.49784889-14.50666667 14.48846222-14.50666666 8.03612445 0 14.53169778 6.50695111 14.53169778 14.50666666 0.00227555 8.02019555-6.49557333 14.52600889-14.53169778 14.52600889zM524.37333333-55.10257777000004c-8.00881778 0-14.48846222-6.48874667-14.48846222-14.49756444 0-8.02702222 6.47964445-14.51576889 14.48846222-14.5157689 8.03612445 0 14.53283555 6.48874667 14.53283556 14.5157689 0 8.00881778-6.49671111 14.49756445-14.53283556 14.49756444zM480.31971555-48.92444444c-8.00881778 0-14.50666667-6.50695111-14.50666666-14.51576889s6.49784889-14.51576889 14.50666666-14.51576888c8.03612445 0 14.51576889 6.50695111 14.5157689 14.51576888S488.35584-48.92444444 480.31971555-48.92444444zM437.35950222-43.128604440000004c-8.00881778 0-14.49756445-6.49784889-14.49756444-14.52487111 0-7.99971555 6.48874667-14.49756445 14.49756444-14.49756444 8.02702222 0 14.51576889 6.49784889 14.51576889 14.49756444 0 8.02702222-6.48874667 14.52487111-14.51576889 14.52487111zM391.12931555-40.568604439999945c-7.99857778 0-14.49642667-6.50695111-14.49642666-14.53169777 0-7.99061333 6.49784889-14.49756445 14.49642666-14.49756445 8.02816 0 14.52600889 6.50695111 14.5260089 14.49756445-0.00227555 8.02474667-6.50012445 14.53169778-14.5260089 14.53169777zM349.25340445-40.568604439999945c-7.99061333 0-14.49756445-6.50695111-14.49756445-14.53169777 0-7.99061333 6.50695111-14.49756445 14.49756445-14.49756445 8.02702222 0 14.53283555 6.50695111 14.53283555 14.49756445 0 8.02474667-6.50581333 14.53169778-14.53283555 14.53169777zM311.19132445-80.50687999000002c8.00881778 0 14.51576889 6.50695111 14.51576888 14.51576888 0 8.02702222-6.50695111 14.51576889-14.51576888 14.5157689S296.67555555-57.96408887999996 296.67555555-65.99111111000002c0-8.00881778 6.50695111-14.51576889 14.5157689-14.51576888zM293.62631111-86.66680887999996c0 8.01792-6.49784889 14.51576889-14.51576889 14.51576889-8.00995555 0-14.50666667-6.49784889-14.50666667-14.51576889 0-8.00881778 6.49784889-14.50666667 14.50666667-14.50666667 8.01792 0 14.51576889 6.49784889 14.51576889 14.50666667zM287.03061333-122.55118220999998c0 8.00881778-6.49784889 14.51576889-14.51576888 14.51576888-8.00881778 0-14.50666667-6.50695111-14.50666667-14.51576888 0-8.02702222 6.49784889-14.51576889 14.50666667-14.5157689 8.01905778 0 14.51576889 6.48874667 14.51576888 14.5157689zM287.03061333-142.31096888000002c-8.02816 0-14.51576889-6.49784889-14.51576888-14.48846223 0-8.03612445 6.48874667-14.53169778 14.51576888-14.53169777 8.00881778 0 14.49642667 6.49784889 14.49642667 14.53169777 0.00227555 7.99061333-6.48647111 14.48846222-14.49642667 14.48846223zM316.05304889-171.3595733300001c-8.01792 0-14.52600889-6.50695111-14.52600889-14.50666666 0-8.01792 6.50808889-14.52487111 14.52600889-14.52487112s14.50666667 6.50695111 14.50666666 14.52487112c0 7.99971555-6.48874667 14.50666667-14.50666666 14.50666666zM687.59096889 703.90215112h-67.07541334v0.00910222l-76.63160888-177.92h114.94286222l-19.13742222-138.38222222 105.40373333 187.78680889h-105.40373333zM948.28430222 250.80832001h-93.47527111V529.41368889c0 195.31548445-153.43957333 353.64408889-342.78058666 353.6440889-189.37742222 0-342.84544-158.32860445-342.84544-353.6440889v-278.60536888h-93.48437334c-11.52 0-20.78264889-9.59146667-20.78264889-21.44938667v-21.41297778c0-11.85792 9.26264889-21.44028445 20.78264889-21.44028444h872.58680889c11.49383111 0 20.79971555 9.58236445 20.79971555 21.44028444v21.41297778c-0.00113778 11.85905778-9.30702222 21.44938667-20.80085333 21.44938667z m-171.41304889 62.66766222H512.02616889V806.92451556c136.51399111-10.88853333 264.84280889-127.86688 264.84280889-270.91512889l0.00227555-222.53340444z"  horiz-adv-x="1024" />

    
    <glyph glyph-name="suolingdao" unicode="&#58915;" d="M516.30231703-120.32136533000005H37.47809659v95.04176355c24.78110341 88.10829748 122.38362548 140.20577659 218.31133866 153.42584415 95.88644978 13.2589037 143.79326578 62.24585008 157.13955083 80.42602193 13.34507141 18.1413357 8.03422815 83.15183408 0 109.59075555-7.9832557 26.46804859-56.0539117 62.89028741-69.84559883 80.40660385-13.79290075 17.49932563 16.16918755 4.3460077-34.94889243 43.84601127-51.07560297 39.47209008-31.96214992 125.35094992-17.41801245 138.86714311 14.4628243 13.4797843 26.18405925 7.29391408 26.18405926 7.29391407v102.32475496s-0.37622518 121.17363675 26.18405926 146.15013452c26.54814815 25.00805215 96.03815348 7.30362311 96.03815348 7.30362312 27.58458785 26.93165511 56.67286282 38.74633955 69.89535763 42.52558222v1.33984711c0 0.20388978 1.33013808 0.11165392 3.637248-0.37379793 2.29740089 0.48423822 3.61540267 0.57647408 3.61540267 0.37379793v-1.35926519c13.1848723-3.75861097 42.19062045-15.57329541 69.70481778-42.50495052 0 0 69.31524267 17.70442903 95.78329125-7.30362312 26.47775763-24.97892503 26.14279585-146.15013452 26.14279585-146.1501345v-102.32475497s11.66055348 6.1482477 26.12337778-7.29391408c14.450688-13.52711585 33.50345955-99.39383941-17.42893511-138.86714311-50.96394903-39.50000355-21.06375585-26.34668563-34.81660681-43.84601126-13.76256-17.51631645-61.67787141-53.93855525-69.67204978-80.40660385-8.00388741-26.43892148-13.26497185-91.44941985 0-109.59075556 13.28438992-18.17895822 61.10139733-67.16711822 156.77424829-80.42602192 95.59275141-13.22006755 192.95254755-65.31754667 217.64141511-153.42584415v-95.04176355h-470.2208z"  horiz-adv-x="1024" />

    
    <glyph glyph-name="yewuguanli" unicode="&#58927;" d="M962 324h-30V834c0 18-12 30-30 30H302c-18 0-30-12-30-30v-90H122c-18 0-30-12-30-30v-390H62c-18 0-30-12-30-30v-360c0-18 12-30 30-30h900c18 0 30 12 30 30V294c0 18-12 30-30 30zM872 804v-480H644c-12 0-24-12-24-30v-90h-210v90c0 18-18 30-30 30H332V804h540zM152 684h120v-360H152V684z m780-720H92V264h258v-90c0-18 12-30 30-30h270c18 0 30 12 30 30v90H932v-300zM422 624h360c18 0 30 12 30 30s-12 30-30 30H422c-18 0-30-12-30-30s12-30 30-30z m0-180h360c18 0 30 12 30 30s-12 30-30 30H422c-18 0-30-12-30-30s12-30 30-30z"  horiz-adv-x="1024" />

    
    <glyph glyph-name="ico_qiantaijiedai_banlituifang" unicode="&#59486;" d="M512 809.81333333a92.672 92.672 0 0 0 67.24266667-28.672l334.67733333-348.84266666c24.74666667-26.112 26.96533333-50.176 20.992-63.31733334a41.984 41.984 0 0 0-39.76533333-24.74666666h-68.26666667V59.73333333000005c0-56.49066667-40.448-102.4-90.112-102.4H285.86666667c-49.664 0-90.112 46.08-90.112 102.4V342.86933333l-50.00533334 1.19466667H127.14666667a42.66666667 42.66666667 0 0 0-39.25333334 24.91733333c-5.632 12.62933333-3.584 36.69333333 21.33333334 62.63466667L443.73333333 780.97066667a92.672 92.672 0 0 0 68.26666667 28.84266666m0 51.2a144.04266667 144.04266667 0 0 1-104.10666667-44.544L72.36266667 467.62666667c-42.496-44.20266667-43.86133333-90.624-31.232-119.46666667a93.35466667 93.35466667 0 0 1 83.28533333-55.12533333h20.13866667V59.73333333000005c0-85.33333333 63.31733333-153.6 141.312-153.6h451.24266666c77.99466667 0 141.312 68.26666667 141.312 153.6V292.86400000000003H898.21866667a92.50133333 92.50133333 0 0 1 83.62666666 55.296c12.8 28.50133333 11.264 74.92266667-31.06133333 119.46666667L615.59466667 816.46933333A143.18933333 143.18933333 0 0 1 512 861.01333333zM512 554.66666667a170.66666667 170.66666667 0 1 0-170.66666667-170.66666667 170.66666667 170.66666667 0 0 0 170.66666667 170.66666667z m0 34.13333333a204.8 204.8 0 1 1 204.8-204.8 204.8 204.8 0 0 1-204.8 204.8zM640.17066667 371.02933333l-95.57333334-95.57333333A17.06666667 17.06666667 0 0 0 520.36266667 298.66666667000004l67.41333333 68.26666666H395.94666667a17.06666667 17.06666667 0 0 0 0 34.13333334h190.80533333l-66.38933333 68.26666666a17.06666667 17.06666667 0 0 0 24.23466666 23.89333334l95.744-97.45066667a17.06666667 17.06666667 0 0 0-0.17066666-24.74666667z"  horiz-adv-x="1024" />

    
    <glyph glyph-name="hj" unicode="&#59025;" d="M667.768693 562.423669c-42.699498 42.002626-98.738815 62.819744-159.010527 62.204737-123.626645-1.038656-223.349881-106.730836-222.314295-230.327806 0.503467-59.878762 24.293289-124.546597 66.971297-166.549224 42.224684-41.554418 97.957009-81.567737 157.108201-81.567737l1.902326 0c123.596969 0 223.320205 118.581746 222.284619 242.148016C734.236524 448.185858 710.473307 520.421043 667.768693 562.423669L667.768693 562.423669zM511.976464 232.347045c-45.196365-0.367367-87.255273 12.438287-119.278617 43.935652-32.028461 31.493272-49.848315 64.949244-50.211589 109.838617-0.786922 92.719728 74.02597 152.316058 166.744675 152.316058l1.402953 0c44.38386 0 86.190011-0.953721 117.880781-32.140001 32.028461-31.493272 49.848315-57.411571 50.211589-102.33062C679.483502 311.308421 604.670609 233.100198 511.976464 232.347045L511.976464 232.347045zM511.976464 232.347045M398.4959 403.830651l56.043411 0.474814c-0.252757 30.90794 24.682146 56.265468 55.590086 56.518225l-0.478907 56.039317C447.869401 516.328841 397.99141 465.642438 398.4959 403.830651L398.4959 403.830651zM398.4959 403.830651M507.829004 736.706017c229.933833 0.731664 428.459329-138.389884 450.846198-311.078944l-55.564503-13.643742C884.423081 556.006516 713.388706 650.546705 512.763386 650.546705l-4.454452 0c-202.810079 0-374.207727-96.614431-390.181537-238.113119l-55.676044 14.904455C81.841983 599.295438 273.329179 734.774015 507.829004 736.706017L507.829004 736.706017zM507.829004 736.706017M513.378393 34.074306l-4.847401 0c-228.420363 0-423.828868 150.327774-446.049962 321.840032l55.56041 15.801894c18.773576-145.085376 191.68981-251.901147 394.862139-251.477498 202.810079 1.680269 374.177028 115.973338 390.121162 257.476119l55.676044-22.417569C939.341878 183.312258 747.879242 34.074306 513.378393 34.074306L513.378393 34.074306zM513.378393 34.074306"  horiz-adv-x="1024" />

    
    <glyph glyph-name="zhaopian" unicode="&#58898;" d="M512 607.616a239.36 239.36 0 0 1-240.768-240.768A239.296 239.296 0 0 1 512 126.016a239.296 239.296 0 0 1 240.768 240.832A239.36 239.36 0 0 1 512 607.616z m0-430.144c-103.168 0-189.184 86.08-189.184 189.312 0 103.168 86.016 189.184 189.184 189.184 103.104 0 189.248-86.016 189.248-189.184 0-103.232-86.144-189.312-189.248-189.312z m298.176 308.672a32.064 32.064 0 0 1 64 0 32 32 0 0 1-64 0zM890.368 676.352H787.136l-24 72.256c-6.848 17.216-27.52 30.912-44.736 30.912H305.6a49.088 49.088 0 0 1-44.736-30.912L236.8 676.352H133.568c-58.496 0-103.168-44.736-103.168-103.168v-481.536c0-58.496 48.128-103.104 103.168-103.104h756.8c58.496 0 103.232 44.608 103.232 103.104V573.184c0 58.496-44.736 103.168-103.232 103.168z m51.648-584.704a52.992 52.992 0 0 0-51.648-51.712h-756.8a52.928 52.928 0 0 0-51.584 51.712V573.184c0 27.52 24.064 51.584 51.584 51.584h141.056l10.368 34.432 24.064 68.8h405.952l24-68.8 10.368-34.432h140.992c27.52 0 51.648-24.064 51.648-51.584v-481.536z"  horiz-adv-x="1024" />

    
    <glyph glyph-name="shouhuan" unicode="&#59168;" d="M589.309508 89.379424h-154.587467A107.916774 107.916774 0 0 0 326.93146 197.170004V571.944708a107.916774 107.916774 0 0 0 107.790581 107.790581h154.587467a107.916774 107.916774 0 0 0 107.79058-107.790581v-374.774704a107.916774 107.916774 0 0 0-107.79058-107.79058z m-154.587467 553.549325a71.06817 71.06817 0 0 1-70.984041-70.984041v-374.774704a71.06817 71.06817 0 0 1 70.984041-70.984041h154.587467a71.06817 71.06817 0 0 1 70.984041 70.984041V571.944708a71.06817 71.06817 0 0 1-70.984041 70.984041zM573.787664-128H400.723314l-40.581839 258.066424 36.364861 5.720788 35.691828-226.980672h141.5895v-36.80654zM622.898104-128h-75.327212v36.80654h43.852363L627.125598 135.787212l36.354345-5.720788-40.581839-258.066424zM396.506336 632.223304l-36.364861 5.720788L400.723314 896h173.06435v-36.80654H432.198164L396.506336 632.223304zM627.125598 632.223304L591.423255 859.19346h-43.852363V896h75.327212l40.581839-258.055908-36.354345-5.720788zM577.100253 409.059995a18.40327 18.40327 0 0 0-16.131781 9.538152l-13.723581 24.954834-18.571529-26.626902a18.40327 18.40327 0 0 0-30.770267 0.883357l-4.290591 6.993242h-6.940661a18.40327 18.40327 0 0 0-9.695895 2.755233l-3.848912-8.044858a18.40327 18.40327 0 0 0-16.594491-10.453058H395.181301a18.40327 18.40327 0 1 0 0 36.80654h49.762442l10.063959 21.032309a18.40327 18.40327 0 0 0 29.897427 4.78485l9.632797-10.06396h9.369893a18.392754 18.392754 0 0 0 9.306797-2.523877l20.811469 29.83433a18.40327 18.40327 0 0 0 31.222462-1.661553l17.824881-32.421303a18.40327 18.40327 0 0 0 10.190154 3.081233h43.053135a18.40327 18.40327 0 0 0 0-36.80654H599.362951l-11.252285-8.412923a18.40327 18.40327 0 0 0-11.010413-3.649106zM655.960893 264.136874H363.559225a18.40327 18.40327 0 1 0 0 36.80654h292.401668a18.40327 18.40327 0 0 0 0-36.80654z"  horiz-adv-x="1024" />

    
    <glyph glyph-name="zhiwen" unicode="&#58899;" d="M49.5 196.1c-7.6 0-14.4 5.3-16 13C3.1 353.6 3.4 466.3 34.3 544c3.3 8.4 12.8 12.5 21.3 9.2 8.4-3.3 12.5-12.9 9.2-21.3-28.5-71.7-28.2-178 0.8-316.1 1.9-8.9-3.8-17.6-12.7-19.4-1.1-0.2-2.3-0.3-3.4-0.3zM82.2 587C178.8 775.5 321.9 865.1 519.1 860.1c9.5-0.2 16.6 6.9 16.8 16 0.2 9.1-6.9 16.6-16 16.8C311.5 897.5 154.6 800 53 602c-4.1-8-1-17.9 7.1-22.1 2.4-1.2 4.9-1.8 7.5-1.8 5.9 0 11.7 3.2 14.6 8.9zM993 366.6c9 0.2 16.2 7.7 16 16.8C1002 671 856.7 842 577.1 891.8c-9 1.7-17.4-4.4-19-13.3-1.6-8.9 4.4-17.4 13.3-19 265.8-47.3 398.2-203.3 404.8-476.9 0.2-8.9 7.5-16 16.4-16h0.4zM119.3 91.5c22.6 57.2 22.9 130.9 0.7 218.9C90.3 427.8 149.4 610 299.5 711.5c7.5 5.1 9.5 15.3 4.4 22.8s-15.3 9.5-22.8 4.4c-162-109.6-225.4-307.9-193-436.3 20.5-81.2 20.7-148.2 0.7-198.9-3.3-8.4 0.8-17.9 9.2-21.3 2-0.8 4-1.2 6-1.2 6.6 0.1 12.7 4.1 15.3 10.5z m823.4 206c16.8 188.6-63.3 305.9-112.5 359-145 157.2-312.9 193.1-498.9 106.4-8.2-3.8-11.8-13.6-7.9-21.8 3.8-8.2 13.6-11.7 21.8-7.9 174.1 81 324.9 48.6 461-99C851.6 585 925.7 476.3 910 300.4c-0.8-9 5.9-17 14.9-17.8 0.5 0 1-0.1 1.5-0.1 8.3 0 15.5 6.4 16.3 15z m-14.1-167.8c25.3 97.2 14.9 133.6 13.7 137.4-2.8 8.5-11.8 12.9-20.3 10.4-8.5-2.6-13.3-11.7-10.9-20.3 0.1-0.3 8.5-32.2-14.1-119.3-2.3-8.8 3-17.7 11.7-20 1.4-0.4 2.8-0.5 4.1-0.5 7.2 0 13.8 4.9 15.8 12.3z m-767.1-96.8c45.3 53.3 60.9 141.4 46.2 261.8-10.1 82.8-13.3 235.1 78.4 325 62.6 61.3 160.2 83.1 289.9 64.7 9-1.3 17.3 5 18.5 13.9 1.3 9-5 17.3-13.9 18.5-140.5 19.9-247.3-4.8-317.5-73.7-101.7-99.7-98.8-263.5-87.9-352.3 13.5-110.9 0.5-190.5-38.7-236.6-5.9-6.9-5-17.2 1.9-23.1 3.1-2.6 6.8-3.9 10.6-3.9 4.6-0.1 9.3 1.9 12.5 5.7z m676.5-9.2c57.7 339.9-2.2 562.8-178.3 662.5-7.9 4.4-17.9 1.7-22.3-6.2-4.5-7.9-1.7-17.9 6.2-22.3C806.4 565.5 860.9 354 805.7 29.2c-1.5-8.9 4.5-17.4 13.4-18.9 0.9-0.1 1.8-0.2 2.8-0.2 7.8-0.1 14.8 5.6 16.1 13.6z m-610.9-45.5c34.2 45.9 51.5 92.9 51.5 139.6 0 9.1-7.3 16.4-16.4 16.4s-16.4-7.3-16.4-16.4c0-39.5-15.1-79.8-45-120-5.4-7.3-3.9-17.5 3.4-22.9 2.9-2.2 6.4-3.2 9.8-3.2 5-0.2 9.9 2.1 13.1 6.5z m62 192.3c14.9 57.2 15 120.6 0.2 188.4-0.2 1-0.5 1.9-0.9 2.8-13.7 32.8-11.7 100.4 15.6 156.9 15.1 31.3 44.1 71.6 96.7 86.4 132.3 37.3 222.8 10.1 284.8-85.6 4.9-7.6 15.1-9.8 22.7-4.8 7.6 4.9 9.8 15.1 4.8 22.7-70 107.9-175 140.4-321.2 99.3-50.9-14.3-91.5-50.2-117.3-103.7-32-66.4-32.6-143-16.9-182.3 13.4-62.2 13.4-120-0.2-171.7-2.3-8.8 3-17.7 11.7-20 1.4-0.4 2.8-0.5 4.1-0.5 7.4-0.2 14 4.7 15.9 12.1z m442.8-219.8c62.9 192.7 67.8 367.8 14.5 520.6-3 8.6-12.4 13.1-20.9 10.1-8.5-3-13.1-12.3-10.1-20.9 50.9-145.9 46-314-14.7-499.7-2.8-8.6 1.9-17.9 10.5-20.7 1.7-0.6 3.4-0.8 5.1-0.8 6.9 0.1 13.3 4.5 15.6 11.4z m-429.7-5.2c51.2 114.8 72.7 220.7 64.1 314.7-1.5 16.6-3.1 32.3-4.6 47.1-11.1 110.3-14.1 156 23.3 176.6 7.9 4.4 10.8 14.3 6.4 22.3-4.4 7.9-14.3 10.8-22.3 6.4-57.7-31.9-51.1-98.4-40-208.5 1.5-14.7 3-30.3 4.6-46.8 8.1-88.3-12.5-188.7-61.4-298.3-3.7-8.3 0-18 8.3-21.6 2.2-1 4.4-1.4 6.7-1.4 6.2-0.2 12.2 3.4 14.9 9.5z m325.7-55.7c32.1 39.4 86.8 259 74.1 421.7-17.3 122-54.6 197.9-113.9 232.1-46.1 26.6-104.3 26-173-1.7-8.4-3.4-12.5-12.9-9.1-21.3 3.4-8.4 12.9-12.4 21.3-9.1 58.9 23.8 107.5 25 144.4 3.8 49.4-28.5 82.3-98.6 97.7-207.3 12.2-157.1-42.5-367.4-66.9-397.4-5.7-7-4.7-17.3 2.4-23.1 3-2.5 6.7-3.7 10.3-3.7 4.8-0.1 9.5 2 12.7 6z m-252.5 20.8c57.9 120.2 87.2 218.3 87.2 291.4 0 32.1-4.6 65.9-9.1 98.6-11.9 86.4-15.9 139.9 27 155.4 15.4 5 38 7.7 58.5-8.4 28.4-22.4 59.4-85.5 45.4-258.9-0.7-9 6-16.9 15-17.7 9.1-0.6 16.9 6 17.7 15 12.2 150.8-7.3 247.4-57.8 287.2-33.5 26.4-70.1 20-89.4 13.7-71.4-25.8-59.9-109.7-48.8-190.8 4.3-31.6 8.8-64.3 8.8-94.1 0-68.2-28.3-161.4-84-277.2-3.9-8.1-0.5-17.9 7.7-21.9 2.3-1.1 4.7-1.6 7.1-1.6 6 0.1 11.9 3.5 14.7 9.3z m171.1-29.3c18 16.5 43.7 61 59.8 256.1 0.7 9-6 16.9-15 17.7-9.1 0.7-16.9-6-17.7-15-14.7-178.2-37.2-223.5-49.3-234.6-6.7-6.1-7.1-16.5-1-23.2 3.2-3.5 7.6-5.3 12.1-5.3 3.9 0 7.9 1.4 11.1 4.3z m-38.1 147c47 137.9 48.7 265 5 377.7-3.3 8.4-12.8 12.6-21.2 9.4-8.4-3.3-12.6-12.8-9.3-21.2 40.8-105.3 39-224.8-5.4-355.3-2.9-8.6 1.7-17.9 10.2-20.8 1.8-0.6 3.5-0.9 5.3-0.9 6.7 0 13.1 4.3 15.4 11.1z m-46.5-133c5.7 8.4 14.6 26.7 26.1 89.6 1.6 8.9-4.3 17.4-13.2 19.1-8.9 1.7-17.4-4.3-19.1-13.2-10.4-57.1-18.1-72.8-20.9-77-5.1-7.5-3.2-17.7 4.3-22.8 2.8-1.9 6-2.8 9.2-2.8 5.3 0 10.4 2.5 13.6 7.1z"  horiz-adv-x="1024" />

    
    <glyph glyph-name="renlian" unicode="&#59024;" d="M133.79302855 543.6851029300001a20.73164914 20.73164914 0 0 1 20.80018432 20.76591673V715.77492935h151.2896421c11.51377522 0 20.76591673 9.25214151 20.76591673 20.80018432a20.69738269 20.69738269 0 0 1-20.76591673 20.76591673H133.79302855c-11.54804281-1.13081685-20.80018432-10.38295837-20.80018318-20.76591673v-172.08982642c0-11.51377522 9.25214151-20.80018432 20.80018318-20.80018432z m798.04857799 199.81198222c0 1.16508445-1.13081685 2.2959013-2.29590243 3.46098688-1.13081685 1.13081685-1.13081685 2.2959013-2.2959013 3.46098575-1.13081685 1.16508445-2.2959013 1.16508445-3.49525334 2.29590129-1.13081685 1.16508445-2.26163485 1.16508445-3.46098574 2.3301689-2.2959013 1.16508445-4.62607019 1.16508445-8.08705706 1.16508444h-172.05555883a20.73164914 20.73164914 0 0 1-20.80018432-20.80018318c0-11.51377522 9.28640797-20.76591673 20.80018432-20.76591787h151.32390969v-151.32390855c0-11.54804281 9.25214151-20.76591673 20.73164914-20.76591673a20.66311509 20.66311509 0 0 1 20.76591672 20.76591673V736.5751136700001c0 2.2959013 0 4.59180373-1.13081685 6.92197148zM305.88285497 27.44989240999996H153.42812843v151.32390969a20.66311509 20.66311509 0 0 1-20.80018432 20.73164913c-11.51377522 0-19.63509987-9.21787392-19.63509874-20.73164913v-172.08982642c0-2.2959013 0-5.75688818 1.16508444-8.05278947 0-1.16508445 1.13081685-2.2959013 2.2959013-3.49525334 1.16508445-2.2959013 3.49525333-3.49525333 5.79115463-5.75688818a19.56656469 19.56656469 0 0 1 11.54804281-3.46098574h172.08982642a20.66311509 20.66311509 0 0 1 20.76591673 20.73165028c-1.13081685 11.5823104-10.38295837 20.80018432-20.76591673 20.80018318z m606.3236517 172.05555882a20.66311509 20.66311509 0 0 1-20.73164914-20.73164913v-151.32390969h-151.32390969a20.69738269 20.69738269 0 0 1-20.80018432-20.76591673c0-11.54804281 9.28640797-20.73164914 20.80018432-20.73164914h172.05555883c2.2959013 0 5.79115463 0 8.08705706 1.13081685 1.16508445 0 2.2959013 1.13081685 3.46098574 2.2959013 2.33016889 1.13081685 3.49525333 3.46098574 5.79115464 5.75688818a19.66936633 19.66936633 0 0 1 3.46098688 11.54804281v172.08982642a20.69738269 20.69738269 0 0 1-20.80018432 20.73164913z m-175.51654457-80.8020332h42.73118549c-10.45149241 85.46237099-63.56563627 157.08079673-136.31488 195.15164444a188.05833614 188.05833614 0 0 1 68.12317241 144.36767062 187.09885497 187.09885497 0 0 1-187.09885497 187.09885382c-102.76730197 0-187.06458738-84.29728654-187.06458738-187.09885382 0-60.03611648 27.72215581-113.18452679 71.58415816-146.66357192a253.09746176 253.09746176 0 0 1-130.48945778-191.72492515h42.73118549c15.00902855 76.21022947 70.4533413 138.57651485 143.20258503 161.70686691 18.47001543-5.79115463 39.27019975-10.38295837 60.03611648-10.38295836 23.13035321 0 43.89626994 4.59180373 64.69645426 11.51377636 73.88006059-23.06181803 132.81962667-85.42810339 147.86292281-163.9685029z m-360.35376583 339.55358151a146.86917405 146.86917405 0 0 0 146.66357191 146.66357191 146.86917405 146.86917405 0 0 0 146.69783836-146.66357191 145.53275392 145.53275392 0 0 0-71.65269333-125.86338645 156.87519346 156.87519346 0 0 0-24.26117006-11.54804395c-1.13081685 0-2.26163485-1.13081685-3.42671929-1.13081685-2.33016889-1.13081685-4.66033778-1.13081685-6.92197263-2.3301689-2.33016889-1.13081685-5.79115463-1.13081685-8.05278947-2.29590129-1.19935203-1.16508445-3.49525333-1.16508445-5.79115463-1.16508445-3.49525333-1.13081685-6.95623907-1.13081685-10.41722596-1.13081799h-3.46098574c-4.62607019 0-9.25214151-1.13081685-12.71312725-1.13081685-4.62607019 0-9.25214151 0-12.71312725 1.13081685h-3.46098688c-4.62607019 0-8.08705707 1.13081685-12.71312726 2.29590244-1.16508445 0-2.33016889 0-3.49525333 1.16508444-3.46098574 1.13081685-5.75688818 1.13081685-9.25214037 2.33016889-1.16508445 0-2.2959013 1.13081685-4.62607133 1.13081686l-10.38295837 3.42671928c-1.16508445 1.19935203-3.46098574 1.19935203-4.62607018 2.2959013-2.2959013 1.16508445-4.62607019 2.33016889-5.79115577 3.49525334-1.16508445 1.16508445-3.46098574 1.16508445-4.59180259 2.33016888-44.99282034 23.02755157-75.01087744 71.5498917-75.01087858 126.99420445z m0 0"  horiz-adv-x="1024" />

    
    <glyph glyph-name="zhizhang" unicode="&#58885;" d="M809.425 848.874H419.094c-16.942 0-32.485-11.994-42.524-22.045L208.54 658.804c-13.766-13.758-20.755-27.636-20.755-41.238v-607.184c0-31.886 25.936-57.827 57.828-57.827H794.97c28.773 0 72.286 23.06 72.286 57.827V791.046c-0.001 31.885-25.938 57.828-57.83 57.828zM390.18 799.552v-124.16c0-16.215-12.706-28.913-28.914-28.913H237.1L390.18 799.552z m448.16-789.17c0-13.956-25.455-28.914-43.37-28.914H245.611c-16.207 0-28.913 12.7-28.913 28.914V617.566h144.566c31.893 0 57.827 25.941 57.827 57.827V819.953h390.333c16.21 0 28.915-12.685 28.915-28.907v-780.664zM722.686 660.935H520.291c-7.992 0-14.457-6.472-14.457-14.456 0-7.984 6.465-14.457 14.457-14.457h202.394c7.992 0 14.457 6.473 14.457 14.457 0 7.984-6.465 14.456-14.456 14.456z m0-130.111H332.354c-7.993 0-14.457-6.472-14.457-14.45 0-7.99 6.464-14.464 14.457-14.464h390.332c7.992 0 14.457 6.474 14.457 14.465 0 7.977-6.466 14.449-14.457 14.449z m0-144.567H332.354c-7.993 0-14.457-6.473-14.457-14.457 0-7.977 6.464-14.457 14.457-14.457h390.332c7.992 0 14.457 6.48 14.457 14.457 0 7.984-6.466 14.457-14.457 14.457z m0-130.11H332.354c-7.993 0-14.457-6.474-14.457-14.458 0-7.977 6.464-14.45 14.457-14.45h390.332c7.992 0 14.457 6.473 14.457 14.45 0 7.984-6.466 14.457-14.457 14.457z m-5.068-144.569H330.433c-7.992 0-14.456-6.472-14.456-14.457s6.464-14.464 14.456-14.464H717.62c7.99 0 14.456 6.48 14.456 14.464-0.001 7.985-6.466 14.457-14.457 14.457z"  horiz-adv-x="1024" />

    
    <glyph glyph-name="yonghu-" unicode="&#58883;" d="M511.994 827.74c-245.018 0-443.62-198.626-443.62-443.72 0-245.076 198.603-443.758 443.62-443.758 245.036 0 443.63 198.682 443.63 443.757 0 245.095-198.594 443.72-443.63 443.72z m0-36.974c224.24 0 406.666-182.454 406.666-406.748 0-98.692-35.346-189.247-94.014-259.752-40.544 16.931-136.25 50.158-195.49 67.656-5.053 1.58-5.847 1.855-5.847 22.876 0 17.363 7.147 34.878 14.113 49.664 7.542 16.089 16.496 43.129 19.714 67.417 8.986 10.43 21.222 31.02 29.095 70.24 6.89 34.573 3.683 47.162-0.9 58.985-0.472 1.225-0.98 2.468-1.34 3.69-1.732 8.112 0.648 50.241 6.58 82.91 4.075 22.426-1.06 70.103-31.92 109.559-19.497 24.943-56.79 55.528-124.91 59.805l-37.374-0.048c-66.966-4.23-104.296-34.815-123.794-59.757-30.868-39.456-35.989-87.133-31.91-109.543 5.958-32.685 8.301-74.814 6.604-82.764-0.363-1.384-0.863-2.627-1.368-3.852-4.553-11.823-7.8-24.412-0.866-58.985 7.83-39.22 20.07-59.81 29.093-70.24 3.177-24.288 12.136-51.328 19.714-67.417 5.523-11.777 8.123-27.783 8.123-50.42 0-21.02-0.793-21.293-5.522-22.786-61.266-18.086-158.778-53.35-195.137-69.26-59.82 70.833-95.958 162.27-95.958 262.021-0.002 224.295 182.42 406.75 406.648 406.75z m-283.9-697.606c41.625 16.995 124.623 46.618 179.14 62.729 31.693 9.998 31.693 36.7 31.693 58.154 0 17.782-1.223 44.002-11.622 66.172-7.148 15.19-15.304 41.226-17.11 61.591a18.357 18.357 0 0 1-6.247 12.314c-5.235 4.6-15.887 21.383-22.676 55.276-5.38 26.792-3.1 32.664-0.902 38.345 0.943 2.416 1.843 4.787 2.563 7.493 4.446 16.22-0.506 69.542-5.881 99.114-2.345 12.85 0.61 49.386 24.658 80.147 21.552 27.573 54.184 42.938 95.81 45.6l35.064 0.03c42.735-2.692 75.374-18.057 96.965-45.63 24.047-30.763 26.969-67.299 24.625-80.165-5.344-29.555-10.326-82.876-5.889-99.08 0.754-2.723 1.62-5.094 2.568-7.51 2.198-5.68 4.477-11.553-0.868-38.345-6.786-33.893-17.475-50.676-22.705-55.276a18.647 18.647 0 0 1-6.251-12.314c-1.772-20.365-9.924-46.402-17.075-61.59-8.192-17.436-17.62-40.615-17.62-65.417 0-21.456 0-48.158 32.023-58.235 52.168-15.43 135.566-44.082 179.61-61.398-73.535-72.846-174.588-117.915-285.973-117.915-110.357 0.001-210.54 44.274-283.9 115.91z"  horiz-adv-x="1024" />

    
    <glyph glyph-name="jibenxinxi" unicode="&#58896;" d="M512.187265 832.047456c-246.657726 0-447.325002-200.670346-447.325002-447.325002s200.667276-447.325002 447.325002-447.325002 447.325002 200.670346 447.325002 447.325002S758.846014 832.047456 512.187265 832.047456zM512.187265-6.68705c-215.823464 0-391.409504 175.586041-391.409504 391.409504S296.363801 776.131959 512.187265 776.131959 903.596769 600.545918 903.596769 384.722454 728.010729-6.68705 512.187265-6.68705zM316.483025 524.511197l391.409504 0 0 55.915497L316.483025 580.426695 316.483025 524.511197zM316.483025 356.764706l391.409504 0 0 55.915497L316.483025 412.680203 316.483025 356.764706zM316.483025 189.01719l391.409504 0 0 55.915497L316.483025 244.932688 316.483025 189.01719z"  horiz-adv-x="1024" />

    
    <glyph glyph-name="buoumaotubiao12" unicode="&#58891;" d="M954.181818 0 70.469818 0c-38.493091 0-69.818182 31.325091-69.818182 69.818182l0 581.818182c0 38.493091 31.325091 69.818182 69.818182 69.818182L954.181818 721.454545c38.493091 0 69.818182-31.325091 69.818182-69.818182l0-581.818182C1024 31.325091 992.674909 0 954.181818 0zM70.469818 674.909091c-12.846545 0-23.272727-10.449455-23.272727-23.272727l0-581.818182c0-12.823273 10.426182-23.272727 23.272727-23.272727L954.181818 46.545455c12.846545 0 23.272727 10.449455 23.272727 23.272727l0 581.818182c0 12.823273-10.426182 23.272727-23.272727 23.272727L70.469818 674.909091zM537.134545 267.636364c-5.841455 0-11.682909 2.187636-16.174545 6.562909-9.239273 8.936727-9.472 23.668364-0.535273 32.907636l394.426182 407.272727c8.983273 9.262545 23.738182 9.425455 32.907636 0.512 9.239273-8.936727 9.472-23.668364 0.535273-32.907636l-394.426182-407.272727C549.306182 270.010182 543.208727 267.636364 537.134545 267.636364zM537.134545 267.636364c-5.376 0-10.798545 1.861818-15.173818 5.632L206.568727 544.698182c-9.751273 8.378182-10.845091 23.086545-2.443636 32.814545 8.378182 9.797818 23.086545 10.845091 32.814545 2.443636l315.392-271.429818c9.751273-8.378182 10.845091-23.086545 2.443636-32.814545C550.190545 270.382545 543.650909 267.636364 537.134545 267.636364z"  horiz-adv-x="1024" />

    
    <glyph glyph-name="yewubaobiao" unicode="&#58938;" d="M886.2848 683.063467l-133.674667 119.245653c-6.19776 5.451093-14.62272 8.523947-23.359147 8.523947L161.518933 810.833067c-18.387627 0-33.299627-13.259947-33.299627-29.618347l0-792.554667c0-16.384853 15.218347-31.327573 33.605973-31.327573l701.640533 0c18.387627 0 32.753493 18.11968 32.753493 34.50368l0 670.109013C896.22016 669.894827 892.62336 677.474987 886.2848 683.063467zM853.330773-0.077653l-682.31936 1.053867 0.44544 767.061333 511.429973 0.205653 0-112.648533c0-9.79712 6.591147-15.121067 17.66144-15.121067l152.242347-0.205653L853.330773-0.077653zM725.126827 512.704853l-425.813333 0c-0.234667 0-0.426667 0.192-0.426667 0.426667l0 41.736533c0 0.234667 0.192 0.426667 0.426667 0.426667l425.813333 0c0.234667 0 0.426667-0.192 0.426667-0.426667l0-41.736533C725.553493 512.896 725.361493 512.704853 725.126827 512.704853zM725.126827 384.935253l-425.813333 0c-0.234667 0-0.426667 0.192-0.426667 0.426667l0 41.736533c0 0.234667 0.192 0.426667 0.426667 0.426667l425.813333 0c0.234667 0 0.426667-0.192 0.426667-0.426667l0-41.736533C725.553493 385.127253 725.361493 384.935253 725.126827 384.935253zM725.126827 257.165653l-425.813333 0c-0.234667 0-0.426667 0.192-0.426667 0.426667l0 41.736533c0 0.234667 0.192 0.426667 0.426667 0.426667l425.813333 0c0.234667 0 0.426667-0.192 0.426667-0.426667l0-41.736533C725.553493 257.357653 725.361493 257.165653 725.126827 257.165653zM725.126827 129.396053l-425.813333 0c-0.234667 0-0.426667 0.192-0.426667 0.426667l0 41.736533c0 0.234667 0.192 0.426667 0.426667 0.426667l425.813333 0c0.234667 0 0.426667-0.192 0.426667-0.426667l0-41.736533C725.553493 129.588053 725.361493 129.396053 725.126827 129.396053z"  horiz-adv-x="1024" />

    
    <glyph glyph-name="shenqing" unicode="&#58890;" d="M753.09511111 250.99377777999996c8.64711111 0 15.58755555-6.94044445 15.58755556-15.58755556v-270.44977777c0-8.64711111-6.94044445-15.58755555-15.58755556-15.58755556s-15.58755555 6.94044445-15.58755556 15.58755556V235.40622222000002c0 8.53333333 7.05422222 15.58755555 15.58755556 15.58755556zM602.33955555 100.12444445000006c0 8.64711111 6.94044445 15.58755555 15.58755556 15.58755555h270.44977778c8.64711111 0 15.58755555-6.94044445 15.58755556-15.58755555s-6.94044445-15.58755555-15.58755556-15.58755556H617.92711111c-8.64711111 0-15.58755555 6.94044445-15.58755556 15.58755556zM898.84444445 538.73777778c-89.99822222 84.53688889-297.87022222 275.34222222-297.87022223 275.34222222-2.84444445 2.73066667-6.59911111 3.52711111-10.24 3.75466667-0.79644445 0.11377778-421.54666667 0.45511111-421.54666667 0.45511111-25.82755555 0-46.87644445-21.04888889-46.87644444-46.87644445v-782.336c0-25.82755555 21.04888889-46.87644445 46.87644444-46.87644444h392.30577778c8.64711111 0 15.58755555 6.94044445 15.58755556 15.58755556s-6.94044445 15.58755555-15.58755556 15.58755555H169.18755555c-8.64711111 0-15.58755555 7.05422222-15.58755555 15.58755555V771.41333333c0 8.64711111 7.05422222 15.58755555 15.58755555 15.58755556h405.504v-228.46577778c0-25.82755555 21.04888889-46.87644445 46.87644445-46.87644444h250.99377778v-226.98666667h0.11377777c0.34133333-8.30577778 7.05422222-15.01866667 15.47377778-15.01866667s15.13244445 6.71288889 15.47377778 15.01866667h0.11377778V524.288c0 0.45511111 1.70666667 8.192-4.89244444 14.44977778z m-277.27644445 4.20977777c-8.64711111 0-15.58755555 7.05422222-15.58755555 15.58755556V766.63466667l242.688-223.68711112H621.568z"  horiz-adv-x="1024" />

    
    <glyph glyph-name="anjian" unicode="&#59101;" d="M172.7 334h676v-232h-676zM868.2 475.3V635.8c0 30.1-29.7 54.6-66.1 54.6H220.6c-36.4 0-66.1-24.5-66.1-54.6v-509.5c0-30.1 29.7-54.6 66.1-54.6h581.5c36.4 0 66.1 24.5 66.1 54.6v44.8c0 10.1-8.1 18.2-18.2 18.2s-18.2-8.1-18.2-18.2v-44.8c0-8.6-12.2-18.2-29.7-18.2H220.6c-17.5 0-29.7 9.6-29.7 18.2v410h640.9v-61.1c0-10.1 8.1-18.2 18.2-18.2s18.2 8.2 18.2 18.3z m-677.3 97.5v63c0 8.6 12.2 18.2 29.7 18.2h581.5c17.5 0 29.7-9.6 29.7-18.2v-63H190.9zM693 167.6c3.6-3.5 8.2-5.3 12.8-5.3 4.7 0 9.3 1.8 12.9 5.4l137.9 138.7c3.4 3.5 5.3 8.2 5.3 13-0.1 4.9-2.1 9.5-5.6 12.9L711.8 471c-7.2 6.9-18.8 6.8-25.7-0.5-6.9-7.2-6.7-18.8 0.5-25.7l131.1-125.9-124.8-125.6c-7.1-7.1-7-18.6 0.1-25.7zM501.2 470.5c-6.9 7.3-18.5 7.5-25.7 0.5L331 332.3c-3.5-3.4-5.5-8-5.6-12.9-0.1-4.9 1.8-9.6 5.3-13l137.9-138.7c3.6-3.6 8.2-5.4 12.9-5.4 4.6 0 9.3 1.8 12.8 5.3 7.1 7.1 7.2 18.6 0.1 25.7L369.5 318.9l131.1 125.9c7.3 6.9 7.5 18.4 0.6 25.7zM621.7 470.8c-9.3 1.7-17.9-2.9-19.2-10.4l-57.8-280.2c-1.4-7.4 5.1-14.8 14.3-16.5l2.2-0.4c9.3-1.7 17.9 2.9 19.2 10.4l57.8 280.2c1.4 7.4-5.1 14.8-14.3 16.5l-2.2 0.4z"  horiz-adv-x="1024" />

    
    <glyph glyph-name="chuangweiguanli" unicode="&#58884;" d="M935.936 422.912c-10.24 0-20.48-8.192-20.48-19.456v-52.224h-440.32V461.824c0 20.48-8.192 39.936-21.504 55.296-14.336 14.336-32.768 22.528-52.224 22.528H108.544V714.752c0 10.24-10.24 19.456-20.48 19.456s-20.48-9.216-20.48-19.456v-660.48c0-10.24 10.24-19.456 20.48-19.456s20.48 8.192 20.48 19.456V148.48h515.072c10.24 0 18.432 11.264 18.432 21.504s-8.192 21.504-18.432 21.504H108.544V306.176h806.912v-114.688H734.208c-10.24 0-18.432-11.264-18.432-21.504s8.192-21.504 18.432-21.504h181.248v-95.232c0-10.24 10.24-19.456 20.48-19.456s20.48 8.192 20.48 19.456V403.456c1.024 10.24-10.24 19.456-20.48 19.456z m-497.664-73.728H108.544V496.64h291.84c10.24 0 19.456-4.096 26.624-11.264 7.168-7.168 11.264-16.384 11.264-26.624v-109.568z m0 0"  horiz-adv-x="1024" />

    
    <glyph glyph-name="gerenxinxi" unicode="&#58904;" d="M517.22 330.66a217.84 217.84 0 1 0 154 63.8 216.43 216.43 0 0 0-154-63.8z m0 407.35c-104.49 0-189.51-85-189.51-189.5S412.73 359 517.22 359s189.51 85 189.51 189.51S621.71 738 517.22 738zM143.42-1.81a15.53 15.53 0 0 0-1.66 0.09A14.17 14.17 0 0 0 129.33 14a390.62 390.62 0 0 0 387.89 344.78 14.18 14.18 0 0 0 0-28.35c-183.8 0-338.45-137.45-359.74-319.71a14.17 14.17 0 0 0-14.06-12.53zM568.39 254.09m15 0l224.77 0q15 0 15-15l0 0q0-15-15-15l-224.77 0q-15 0-15 15l0 0q0 15 15 15ZM568.39 157.7m15 0l224.77 0q15 0 15-15l0 0q0-15-15-15l-224.77 0q-15 0-15 15l0 0q0 15 15 15ZM568.39 61.31m15 0l224.77 0q15 0 15-15l0 0q0-15-15-15l-224.77 0q-15 0-15 15l0 0q0 15 15 15Z"  horiz-adv-x="1024" />

    
    <glyph glyph-name="zhangdanbulu" unicode="&#58932;" d="M721.679375 644.4825l0-110.1703125 22.21875 39.403125c9.1078125 16.183125 23.00625 27.58124999 38.7328125 34.0753125l0 67.65656249-60.9515625 60.95156251 0-0.4875-60.95625 60.9534375 0.4875 0L600.2590625 857.8171875 112.1515625 857.8171875c-33.67500001 0-60.9515625-27.3065625-60.9515625-60.95156249l-1e-8-761.90906251c0-33.646875 27.2765625-60.9515625 60.95156251-60.9515625 0 0 261.76125-0.6375 443.8865625-0.58125l9.628125 61.5328125L112.1515625 34.95656250000002 112.1515625 796.865625l457.1475 1e-8 0-111.75937501c0-22.426875 18.1921875-40.62375 40.62187501-40.62375L721.679375 644.4825zM684.52625 361.1775c-7.21875-12.834375-2.925-29.2265625 9.571875-36.6046875 12.5203125-7.40625 28.5234375-3.0140625 35.746875 9.815625l95.9390625 170.240625c7.2234375 12.8296875 2.9296875 29.2265625-9.5671875 36.63-12.5296875 7.40625-28.528125 3.01875-35.746875-9.8128125L684.52625 361.1775zM624.8871875 76.61906251000005c-10.1203125-17.6765625-32.7609375-99.384375-21-133.87968751l-10.453125-18.2578125c-3.628125-6.27656251-1.1296875-14.540625 5.4515625-18.440625 1.4671875-0.8484375 2.990625-1.4625 4.51406249-1.7625 5.4890625-1.1015625 11.1515625 1.153125 13.95937501 6.0609375l11.0625 19.321875c34.7109375 8.1046875 90.084375 63.2390625 102.1828125 84.421875l130.93124999 232.1990625-105.84843749 62.50312499L624.8871875 76.61906251000005zM947.74718749 525.2887499999999c-27.0890625 16.36874999-64.3640625 9.1425-78.65624999-15.328125L773.1528125 339.718125l105.7546875-62.5359375 95.9390625 170.240625C988.6503125 471.92625 974.87375 508.955625 947.74718749 525.2887499999999zM416.763125 278.76656249999996l0.3046875 0c16.7296875 0 30.3234375 13.5609375 30.3234375 30.3234375l0 91.5815625 91.4296875 0c16.8234375 0 30.478125 13.651875 30.478125 30.478125 0 16.8234375-13.6546875 30.4753125-30.47812501 30.4753125l-91.42968749 0 1e-8 91.5815625c0 16.7596875-13.59375 30.3234375-30.3234375 30.3234375l-0.30468751 0c-16.7625 0-30.3234375-13.56281251-30.3234375-30.3234375l0-91.5815625-91.4296875 0c-16.8234375 0-30.4753125-13.651875-30.4753125-30.4753125 0-16.82531249 13.651875-30.478125 30.4753125-30.478125l91.4296875 0 0-91.5815625C386.4396875 292.3275 400.000625 278.76656250999997 416.763125 278.76656249999996z"  horiz-adv-x="1024" />

    
    <glyph glyph-name="dongtai-A" unicode="&#58897;" d="M909.26562473 805.875H265.90624973c-7.03124973 0-10.546875-3.51562527-10.546875-10.546875v-116.015625h-140.62499946c-7.03124973-3.51562527-14.06250026-7.03124973-14.06250027-14.06250027v-604.68749946c0-56.25000027 38.67187473-98.43750027 87.89062527-98.43750027h632.8125c56.25000027 0 98.43750027 45.70312527 98.43749946 98.43750027V795.328125c3.51562527 7.03124973-3.51562527 10.546875-10.546875 10.546875zM125.28125027 60.56250026999999V654.70312473h130.07812446V594.9375h-70.31249973v-151.17187527h70.31249973v-80.85937472h-70.31249973v-24.60937528h70.31249973v-70.31249973h-70.31249973v-24.60937527h70.31249973v-70.31249973h-70.31249973v-24.60937527h70.31249973v-87.89062446c0-42.1875-28.12499973-77.34375027-63.28125-77.34375026S125.28125027 18.375000269999987 125.28125027 60.56250026999999zM241.29687527 570.32812473v-105.46875h-35.15625027v105.46875h35.15625027zM898.71874973 60.56250026999999c0-42.1875-35.15625027-77.34375027-77.34374946-77.34375028H244.81249973c21.09375001 21.09375001 31.640625 49.21874973 31.640625 77.34375028V781.26562473H898.71874973V60.56250026999999zM838.953125 725.01562527H336.21875027v-221.484375h502.73437473V725.01562527zM817.859375 524.62500027h-457.03125027V700.40625001h457.03125027v-175.78124974zM336.21875027 78.140625h186.32812473V313.68750027H336.21875027v-235.54687527z m24.60937446 210.9375h140.62500027V102.75000026999999h-140.62500027v186.32812473zM336.21875027 454.31249973h502.73437473v-24.60937446H336.21875027zM336.21875027 384h502.73437473v-24.60937527H336.21875027zM571.76562473 313.68750027h270.70312554v-24.60937527h-270.70312554zM571.76562473 243.37499973h270.70312554v-24.60937446h-270.70312554zM571.76562473 173.0625h270.70312554v-24.60937527h-270.70312554zM571.76562473 102.75000026999999h270.70312554v-24.60937527h-270.70312554z"  horiz-adv-x="1024" />

    
    <glyph glyph-name="menjin" unicode="&#58925;" d="M831.419733 896H173.124267C151.1424 896 136.533333 881.390933 136.533333 859.409067v-950.818134c0-21.981867 14.609067-36.590933 36.590934-36.590933h658.295466c21.9136 0 36.522667 14.609067 36.522667 36.590933V859.409067C867.9424 881.390933 853.333333 896 831.488 896zM538.8288 274.295467c-21.981867 0-36.590933 14.609067-36.590933 36.590933 0 21.9136 14.609067 36.522667 36.590933 36.522667 21.9136 0 36.590933-14.609067 36.590933-36.522667 0-21.981867-14.677333-36.590933-36.590933-36.590933z m182.818133-36.590934C677.888 237.704533 648.533333 266.990933 648.533333 310.954667c0 43.8272 29.2864 73.1136 73.1136 73.1136 43.895467 0 73.181867-29.2864 73.181867-73.1136 0-43.895467-29.2864-73.181867-73.181867-73.181867z m73.181867 219.409067H209.578667V603.409067h585.181866v-146.295467z m0 219.477333H209.578667V822.8864h585.181866v-146.295467z"  horiz-adv-x="1024" />

    
    <glyph glyph-name="sifaleijianshi" unicode="&#59948;" d="M832 0 832 896 128 896l0-896L64 0l0-64 64 0 704 0 64 0 0 64L832 0zM192 0 192 832l576 0 0-832L192 0zM256 768l64 0 0-384L256 384 256 768zM384 768l64 0 0-384L384 384 384 768zM576 384 512 384 512 768l64 0L576 384zM640 768l64 0 0-384-64 0L640 768zM576 320l128 0 0-64L576 256 576 320z"  horiz-adv-x="1024" />

    
    <glyph glyph-name="liebiaoxiangzuo" unicode="&#59441;" d="M395.636364 418.909091h512a34.909091 34.909091 0 1 0 0-69.818182H395.636364a34.909091 34.909091 0 1 0 0 69.818182zM128 733.090909a34.909091 34.909091 0 1 0 0 69.818182h791.272727a34.909091 34.909091 0 1 0 0-69.818182h-791.272727z m791.272727-698.181818a34.909091 34.909091 0 1 0 0-69.818182h-791.272727a34.909091 34.909091 0 1 0 0 69.818182h791.272727zM294.562909 538.926545v-309.829818L93.090909 384l201.472 154.926545z"  horiz-adv-x="1024" />

    
    <glyph glyph-name="public__easyi" unicode="&#58931;" d="M512 896L0 576h1024L512 896z m288-384l32-64v-384h128V448l32 64h-192z m-256 0l32-64v-384h128V448l32 64h-192z m-256 0l32-64v-384h128V448l32 64h-192z m-256 0l32-64v-384h128V448l32 64H32z m0-512L0-128h1024l-32 128H32zM576 704c0-35.346-28.654-64-64-64s-64 28.654-64 64 28.654 64 64 64 64-28.654 64-64z"  horiz-adv-x="1024" />

    
    <glyph glyph-name="batch-execution" unicode="&#59200;" d="M224.9 828.9v-119.8h-145.8v-770h720v119.8h145.9v770h-720.1zM749.1-10.9h-620v670h620v-670zM894.9 108.9h-95.9v600.2h-524.1v69.8h620v-670zM354.5 546.3l226.3-226.3-226.3-226.3-35.4 35.4 191 190.9-190.9 190.9 35.3 35.4z"  horiz-adv-x="1024" />

    
    <glyph glyph-name="shanchu" unicode="&#58979;" d="M514.133333 55.466667c12.8 0 21.333333 8.533333 21.333334 21.333333v384c0 12.8-8.533333 21.333333-21.333334 21.333333s-21.333333-8.533333-21.333333-21.333333v-384c0-10.666667 8.533333-21.333333 21.333333-21.333333zM684.8 55.466667c12.8 0 21.333333 8.533333 21.333333 21.333333v384c0 12.8-8.533333 21.333333-21.333333 21.333333s-21.333333-8.533333-21.333333-21.333333v-384c0-10.666667 8.533333-21.333333 21.333333-21.333333zM343.466667 55.466667c12.8 0 21.333333 8.533333 21.333333 21.333333v384c0 12.8-8.533333 21.333333-21.333333 21.333333s-21.333333-8.533333-21.333334-21.333333v-384c0-10.666667 8.533333-21.333333 21.333334-21.333333zM938.666667 746.666667h-211.2V823.466667c0 23.466667-21.333333 51.2-44.8 51.2H341.333333c-23.466667 0-40.533333-25.6-40.533333-51.2V746.666667H85.333333c-12.8 0-21.333333-8.533333-21.333333-21.333334s8.533333-21.333333 21.333333-21.333333h66.133334v-755.2C151.466667-85.333333 177.066667-106.666667 213.333333-106.666667h597.333334c36.266667 0 66.133333 21.333333 66.133333 55.466667V704H938.666667c12.8 0 21.333333 8.533333 21.333333 21.333333s-8.533333 21.333333-21.333333 21.333334zM343.466667 802.133333c0 12.8 6.4 29.866667 19.2 29.866667h298.666666c12.8 0 23.466667-17.066667 23.466667-29.866667V746.666667h-341.333333V802.133333z m490.666666-853.333333c0-12.8-10.666667-12.8-23.466666-12.8H213.333333c-12.8 0-19.2 2.133333-19.2 12.8V704h640v-755.2z"  horiz-adv-x="1024" />

    
    <glyph glyph-name="iconSVG-" unicode="&#58936;" d="M770 786H254v-150h510V786zM254-18h510V264H254v-282z m630 594H140c-60 0-108-48-108-102v-234c0-60 48-108 108-108h42V342h666v-210h42c60 0 108 48 108 108V474c-6 54-54 102-114 102z m-168-156c-24 0-48 18-48 48 0 24 18 48 48 48 24 0 48-18 48-48-6-24-24-48-48-48z m120 0c-24 0-48 18-48 48 0 24 18 48 48 48 24 0 48-18 48-48 0-24-18-48-48-48z"  horiz-adv-x="1030" />

    
    <glyph glyph-name="daochu" unicode="&#60053;" d="M319.52489258 591.7620319299999L565.79994599 829.2300685600001a16.71404677 16.71404677 0 0 0 23.39966515-1e-8l246.27505341-237.46803662a5.97848643 5.97848643 0 0 0 1.47855058-6.55704931 5.59277753 5.59277753 0 0 0-5.33563857-3.72851807H672.31985292l0.32142393-270.96041513a18.06402744 18.06402744 0 0 0-5.01421464-12.66410479 16.71404677 16.71404677 0 0 0-12.14982598-5.27135273H499.52232089a16.58547773 16.58547773 0 0 0-12.14982597 5.27135273 17.99974248 17.99974248 0 0 0-5.01421465 12.66410479l0.32142393 270.96041513H323.38198057a5.72134658 5.72134658 0 0 0-5.33563858 3.72851807 6.17134043 6.17134043 0 0 0 1.47855059 6.55704931z m760.10342695-358.70916094c8.74273184-7.19989717 13.11409864-21.92111543 9.77128945-32.91381562l-60.55627851-195.87577324a29.69957549 29.69957549 0 0 0-26.35676631-19.99257187H151.22729638a29.89243037 29.89243037 0 0 0-26.48533534 19.92828691l-61.58483438 196.06862724a33.10666963 33.10666963 0 0 0 9.64271865 32.78524658l154.47636475 124.06965557c8.74273184 7.07132724 25.00678565 12.85695878 36.0637708 12.85695967H354.49582168L206.51222129 215.82454541000004h148.43359336l72.32039561-111.59840567h297.31718144l75.53463486 111.53412071h148.36930928l-148.81930225 154.21922578h89.35586631c11.12127012 0 27.38532305-5.78563154 36.12805489-12.85695967l154.47636474-124.06965557z"  horiz-adv-x="1170" />

    
    <glyph glyph-name="pic" unicode="&#58881;" d="M817.365 682.667a64 64 0 0 0 64-64v-469.334a64 64 0 0 0-64-64H220.032a64 64 0 0 0-64 64V618.667a64 64 0 0 0 64 64h597.333z m0-64H220.032v-469.334h597.333V618.667z m-70.698-93.782v-63.957c-100.608 1.45-163.307-30.293-193.494-94.23l-2.304-5.12-2.858-6.357C504 260.075 418.923 212.757 298.688 214.38v64c96.235-1.6 157.93 32.384 190.933 103.04l2.539 5.632 2.624 5.845c41.664 89.664 127.488 133.333 251.883 131.99zM348.97 542.123a42.667 42.667 0 1 0 0-85.334 42.667 42.667 0 0 0 0 85.334z"  horiz-adv-x="1024" />

    
    <glyph glyph-name="more-arrow" unicode="&#59162;" d="M891.6875 420.9140625l-369.140625 369.14062501C512 800.60156251 501.453125 805.87500001 485.63281251 805.875c-15.8203125 0-26.3671875-5.2734375-36.91406252-15.82031251-10.546875-10.546875-15.82031249-21.09375001-15.82031249-36.9140625 0-15.8203125 5.2734375-26.3671875 15.82031249-36.91406249L780.9453125 384 448.71874999 51.7734375c-10.546875-7.91015626-15.82031249-21.09375001-15.82031249-36.91406249 0-15.8203125 5.2734375-26.3671875 15.82031249-36.9140625 10.546875-10.546875 23.73046875-15.8203125 36.91406252-15.82031251 15.8203125 0 26.3671875 5.2734375 36.91406249 15.82031249l369.140625 369.14062501c10.546875 10.546875 15.8203125 23.73046875 15.8203125 36.9140625s-5.2734375 26.3671875-15.8203125 36.9140625zM591.10156247 384c0 13.18359375-5.2734375 26.3671875-15.82031248 36.9140625L206.14062499 790.0546875C195.59374999 800.6015625 182.41015626 805.875 169.2265625 805.875c-15.8203125 0-26.3671875-5.2734375-36.9140625-15.8203125C121.765625 779.5078125 116.4921875 768.9609375 116.4921875 753.140625c0-15.8203125 5.2734375-26.3671875 15.82031249-36.91406251L464.53906247 384 129.67578125 51.77343751000001c-7.91015625-7.91015625-13.18359375-21.09375001-13.18359375-36.91406251 0-15.8203125 5.2734375-26.3671875 15.8203125-36.9140625 7.91015626-10.546875 21.09375001-15.82031249 36.9140625-15.8203125 15.8203125 0 26.3671875 5.2734375 36.91406249 15.8203125l369.140625 369.140625c10.546875 10.546875 15.8203125 23.73046875 15.82031248 36.9140625z"  horiz-adv-x="1024" />

    
    <glyph glyph-name="gengduo1" unicode="&#58929;" d="M166.6 796.4h228.6c37.9 0 68.6-30.7 68.6-68.6v-228.6c0-37.9-30.7-68.6-68.6-68.6H166.6c-38 0-68.6 30.8-68.6 68.6V727.8c0 38 30.7 68.6 68.6 68.6z m457.3 0h228.6c38 0 68.6-30.7 68.6-68.6v-228.6c0-37.9-30.7-68.6-68.6-68.6H623.9c-37.9 0-68.6 30.7-68.6 68.6V727.8c0 38 30.7 68.6 68.6 68.6zM166.6 339.20000000000005h228.6c37.9 0 68.6-30.7 68.6-68.6V42c0-37.9-30.7-68.6-68.6-68.6H166.6c-38 0-68.6 30.7-68.6 68.6V270.5c0 37.9 30.7 68.7 68.6 68.7z m685.9-45.8c12.7 0 22.8-10.3 22.8-22.8V42c0-12.7-10.3-22.8-22.8-22.8H623.9c-12.7 0-22.8 10.3-22.8 22.8V270.5c0 12.7 10.3 22.8 22.8 22.8h228.6z m0 45.8H623.9c-37.9 0-68.6-30.7-68.6-68.6V42c0-37.9 30.7-68.6 68.6-68.6h228.6c37.9 0 68.6 30.7 68.6 68.6V270.5c0.1 37.9-30.6 68.7-68.6 68.7z"  horiz-adv-x="1024" />

    
    <glyph glyph-name="gengduo6" unicode="&#59249;" d="M517.43706075-72.19528691000005c-62.0083832 0-122.20441283 12.16865975-178.77573532 36.11761777-54.75896889 23.17223506-103.82196939 56.31241482-146.02391704 98.38490864-42.20194765 42.20194765-75.34212741 91.26494815-98.38490864 146.02391703-23.94895803 56.7007763-36.11761778 116.7673521-36.11761778 178.77573532 0 62.0083832 12.16865975 122.20441283 36.11761778 178.77573532 23.17223506 54.75896889 56.31241482 103.82196939 98.38490864 146.02391702 42.20194765 42.20194765 91.26494815 75.34212741 146.02391704 98.38490864 56.7007763 23.94895803 116.7673521 36.11761778 178.77573532 36.11761778s122.20441283-12.16865975 178.7757353-36.11761778c54.75896889-23.17223506 103.82196939-56.31241482 146.02391704-98.38490864 42.20194765-42.20194765 75.34212741-91.26494815 98.38490864-146.02391702 23.94895803-56.7007763 36.11761778-116.7673521 36.11761777-178.77573532 0-62.0083832-12.16865975-122.20441283-36.11761777-178.77573532-23.17223506-54.75896889-56.31241482-103.82196939-98.38490864-146.02391703-42.20194765-42.20194765-91.26494815-75.34212741-146.02391704-98.38490864-56.57132247-23.94895803-116.7673521-36.11761778-178.7757353-36.11761777z m0 828.11613234c-203.37196247 0-368.68449975-165.44199111-368.68449977-368.68449974s165.44199111-368.68449975 368.68449977-368.68449977c203.37196247 0 368.68449975 165.44199111 368.68449975 368.68449977S720.8090232 755.92084543 517.43706075 755.92084543zM432.51535013 172.99026173000004c-13.07483653 0-26.02021925 5.69596839-35.08198716 16.57008988-15.92282075 19.28862025-13.07483653 47.89791605 6.2137837 63.82073678l161.04056098 132.30181136-163.5001837 128.6771042c-19.67698173 15.53445925-23.04278124 44.01430124-7.6377758 63.56182914 15.53445925 19.67698173 44.01430124 23.04278124 63.56182913 7.6377758l207.90284642-163.50018371c10.74466765-8.54395259 17.08790518-21.35988148 17.34681283-35.08198715 0.12945383-13.72210569-5.95487605-26.79694222-16.57008986-35.47034864L461.25409975 183.34656789999997c-8.41449876-6.99050667-18.64135111-10.35630617-28.73874962-10.35630617z"  horiz-adv-x="1024" />

    
    <glyph glyph-name="gengduo7" unicode="&#59379;" d="M298.88 619.2h650.88c23.35999969 0 42.24 25.92 42.24 57.6s-18.88000031 57.6-42.24 57.6H298.88c-23.35999969 0-42.24-25.92-42.24-57.6s19.2-57.6 42.24-57.6z m0-292.8h650.88c23.35999969 0 42.24 25.92 42.24 57.6s-18.88000031 57.6-42.24 57.6H298.88c-23.35999969 0-42.24-25.92-42.24-57.6 0.31999969-31.68 19.2-57.6 42.24-57.6z m0-293.11999969h650.88c23.35999969 0 42.24 25.92 42.24 57.6s-18.88000031 57.6-42.24 57.6H298.88c-23.35999969 0-42.24-25.92-42.24-57.6 0.31999969-31.68 19.2-57.6 42.24-57.6zM32 673.60000031c0-28.15999969 15.04000031-54.07999969 39.36-68.16s54.40000031-14.08000031 78.72 0c24.31999969 14.08000031 39.36 40.00000031 39.36 68.16s-15.04000031 54.07999969-39.36 68.16c-24.31999969 14.08000031-54.40000031 14.08000031-78.72 0C47.04000031 727.99999969 32 702.07999969 32 673.60000031M32 384c0-28.15999969 15.04000031-54.07999969 39.36-68.16 24.31999969-14.08000031 54.40000031-14.08000031 78.72 0 24.31999969 14.08000031 39.36 40.00000031 39.36 68.16s-15.04000031 54.07999969-39.36 68.16c-24.31999969 14.08000031-54.40000031 14.08000031-78.72 0A78.75199969 78.75199969 0 0 1 32 384m0-289.92c0-28.15999969 15.04000031-54.07999969 39.36-68.16 37.75999969-21.76000031 85.75999969-8.95999969 107.52 28.8 7.03999969 12.16000031 10.56 25.60000031 10.56 39.36 0 28.15999969-15.04000031 54.07999969-39.36 68.16-24.31999969 14.08000031-54.40000031 14.08000031-78.72 0C47.04000031 148.48000031000004 32 122.23999968999999 32 94.08000000000004"  horiz-adv-x="1024" />

    
    <glyph glyph-name="jiahao" unicode="&#59169;" d="M867.7 472.2H599.8V740.1c0 49.3-40 89.3-89.3 89.3s-89.3-40-89.3-89.3v-267.9H153.3c-49.3 0-89.3-40-89.3-89.3s40-89.3 89.3-89.3h267.9v-267.9c0-49.3 40-89.3 89.3-89.3s89.3 40 89.3 89.3V293.6h267.9c49.3 0 89.3 40 89.3 89.3s-40 89.3-89.3 89.3z"  horiz-adv-x="1024" />

    
    <glyph glyph-name="shuru" unicode="&#59223;" d="M159.05499628-8.615306540000006a30.66650771 30.66650771 0 0 0-21.55028818 8.83291113 30.67730068 30.67730068 0 0 0-7.78332304 30.9678038c76.31775615 246.16220185 76.43827442 246.29711045 83.42653622 253.4652501L674.21941543 758.05009424c11.66778896 11.97448154 27.29379463 18.56611231 44.01525762 18.5661123 16.70617354 0 32.33307832-6.59073164 43.99996817-18.5661123l115.87923368-118.97583487c23.39493838-24.04699628 23.39493838-61.68827549 0-85.71368583L415.93163398 78.79193144999999c-7.3929876-7.34801836-7.52789619-7.47573135-247.3395038-85.89356455a30.71957256 30.71957256 0 0 0-9.5371339-1.51367344z m102.69687218 255.12282685c-7.28865791-21.71487744-33.03730107-103.87417325-55.71272725-176.69060419 70.31882373 23.08734667 149.20164141 49.15167539 170.63141221 56.69486102l457.44245419 469.70204151L718.23467305 715.18965352l-0.02967979 0.02967978-456.4531248-468.71181299z m131.23542217-146.72022451h0.15019804-0.15019804zM731.86583135 444.74751357c-7.85797207 0-15.71684414 2.99946622-21.71487744 8.99839864l-138.20929454 138.20929453c-11.99696572 11.98977099-11.99696572 31.440883 0 43.430654 11.99696572 11.99696572 31.43278828 11.99696572 43.43065401 0l138.20929453-138.20929452c11.99696572-11.98977099 11.99696572-31.440883 0-43.43065401-5.99893242-5.99893242-13.85690537-8.99839951-21.71577656-8.99839864zM870.06433203 85.92769307000003H501.50771387v-46.06946455c0-16.96249951 13.75077656-30.71327607 30.71327607-30.71327696h307.13096514c16.96249951 0 30.71327607 13.75077656 30.71327695 30.71327696v46.06946455z"  horiz-adv-x="1024" />

    
    <glyph glyph-name="taizhang" unicode="&#58926;" d="M815.72054375 804.31964437H205.58215906c-33.20844094 0-60.23709375-27.01617375-60.23709375-60.23709374v-719.96832376c0-33.22187906 27.02865281-60.23709375 60.23709375-60.23709281h610.13838469c33.20844094 0 60.23709375 27.01617375 60.23709281 60.23709281v719.96736375c0 33.22187906-27.02865281 60.23805375-60.23709281 60.23805375z m-610.13838469-53.17516499h610.13838469c3.89428406 0 7.06192875-3.16764563 7.06192875-7.06192875v-60.74391657H198.51926938v60.74391657c0 3.89428406 3.16764563 7.06192875 7.06288968 7.06192875z m610.13838469-734.09314125H205.58215906c-3.89428406 0-7.06192875 3.16764563-7.06192968 7.06192875V630.16251h624.26320312v-606.04924312c-0.00096-3.89428406-3.16860469-7.06192875-7.06288875-7.06192875zM484.05081031 565.1480315599999H297.57345594c-29.31415687 0-53.17516406-23.84852906-53.175165-53.17516406v-79.45126219c0-29.326635 23.86100719-53.17516406 53.175165-53.17516406h186.47639437c29.31415687 0 53.17516406 23.84852906 53.17516406 53.17516406v79.45126219c0.00096 29.326635-23.86100719 53.17516406-53.17420406 53.17516406zM297.57345594 432.52160531v79.45126219h186.47639437l0.02591719-79.45126219H297.57345594zM743.74684437 565.1480315599999H614.62594625c-14.69595375 0-26.5880625-11.90458687-26.5880625-26.5880625 0-14.68251563 11.89210781-26.5880625 26.5880625-26.58806156h129.12089812c14.69595375 0 26.5880625 11.90458687 26.58806251 26.58806156 0 14.68347562-11.89210781 26.5880625-26.5880625 26.5880625zM743.74684437 432.52160531h-67.09264593c-14.69595375 0-26.5871025-11.90458687-26.58710156-26.58806156 0-14.68251563 11.89210781-26.5871025 26.58710156-26.5871025h67.09264594c14.69595375 0 26.5880625 11.90458687 26.5880625 26.5871025 0 14.68347562-11.89210781 26.5880625-26.5880625 26.58806156zM484.05081031 276.24150937H297.57345594c-29.31415687 0-53.17516406-23.84852906-53.175165-53.175165v-79.45126125c0-29.326635 23.86100719-53.17516406 53.175165-53.17516406h186.47639437c29.31415687 0 53.17516406 23.84852906 53.17516406 53.17516406v79.45126125c0.00096 29.326635-23.86100719 53.17516406-53.17420406 53.175165zM297.57345594 143.61508313000002v79.45126125h186.47639437l0.02591719-79.45126125H297.57345594zM743.74684437 276.24150937H614.62594625c-14.69595375 0-26.5880625-11.90458687-26.5880625-26.5871025 0-14.68251563 11.89210781-26.5871025 26.5880625-26.5871025h129.12089812c14.69595375 0 26.5880625 11.90458687 26.58806251 26.5871025 0 14.68251563-11.89210781 26.5871025-26.5880625 26.5871025zM743.74684437 143.61508313000002h-67.09264593c-14.69595375 0-26.5871025-11.90458687-26.58710156-26.5871025 0-14.68251563 11.89210781-26.5880625 26.58710156-26.58806157h67.09264594c14.69595375 0 26.5880625 11.90458687 26.5880625 26.58806157 0 14.68251563-11.89210781 26.5871025-26.5880625 26.5871025z"  horiz-adv-x="1024" />

    
    <glyph glyph-name="tishishuoming" unicode="&#58956;" d="M512-66C263.4875-66 62 135.48749999999995 62 384S263.4875 834 512 834s450-201.4875 450-450-201.4875-450-450-450z m0 74.99999971c207.1125 0 375.00000029 167.88750029 375.00000029 375.00000029S719.1125 759.00000029 512 759.00000029 136.99999971 591.1125 136.99999971 384s167.88750029-375.00000029 375.00000029-375.00000029z m-37.50000029 412.50000058a37.50000029 37.50000029 0 0 0 75.00000058 0v-262.50000029a37.50000029 37.50000029 0 0 0-75.00000058 0v262.50000029z m33.75 119.99999971a52.49999971 52.49999971 0 1 0 0 105.00000029 52.49999971 52.49999971 0 0 0 0-105.00000029z"  horiz-adv-x="1024" />

    
    <glyph glyph-name="liucheng" unicode="&#59136;" d="M385.92 195.41333333c0-88.42666667-71.68-160-160-160s-160 71.68-160 160 71.68 160 160 160 160-71.68 160-160z m-160-83.2c45.97333333 0 83.2 37.22666667 83.2 83.2s-37.22666667 83.2-83.2 83.2-83.2-37.22666667-83.2-83.2 37.22666667-83.2 83.2-83.2zM510.93333333 492.37333333c-88.32 0-160 71.68-160 160s71.68 160 160 160 160-71.68 160-160-71.68-160-160-160z m0 243.2c-45.97333333 0-83.2-37.22666667-83.2-83.2s37.22666667-83.2 83.2-83.2 83.2 37.22666667 83.2 83.2-37.22666667 83.2-83.2 83.2z m288-380.16c88.42666667 0 160-71.68 160-160s-71.68-160-160-160-160 71.68-160 160 71.68 160 160 160z m0-243.2c45.97333333 0 83.2 37.22666667 83.2 83.2s-37.22666667 83.2-83.2 83.2-83.2-37.22666667-83.2-83.2 37.22666667-83.2 83.2-83.2z m12.8 267.94666667c-12.37333333 85.22666667-60.16 158.93333333-127.89333333 205.97333333 7.89333333 20.58666667 12.26666667 42.98666667 12.26666667 66.34666667 0 5.65333333-0.21333333 11.30666667-0.74666667 16.85333333C806.93333333 607.36 884.26666667 490.98666667 891.2 356.05333333c-23.68 13.65333333-50.66666667 22.18666667-79.46666667 24.10666667zM661.12 71.67999999999995c18.66666667-20.69333333 41.81333333-37.12 67.94666667-47.78666667C667.30666667-19.41333333 592.10666667-44.799999999999955 510.93333333-44.799999999999955c-80.64 0-155.41333333 25.06666667-217.06666666 67.84 26.45333333 10.45333333 49.92 26.77333333 68.8 47.46666667 43.94666667-24.53333333 94.4-38.50666667 148.26666666-38.50666667 54.61333333 0 105.92 14.4 150.18666667 39.68zM338.02666667 586.0266666699999c-67.84-46.93333333-115.62666667-120.85333333-127.89333334-206.18666667-28.90666667-2.45333333-56-11.52-79.57333333-25.70666667 6.4 135.78666667 83.84 252.90666667 195.94666667 315.09333334-0.42666667-5.54666667-0.74666667-11.2-0.74666667-16.85333334 0-23.36 4.37333333-45.76 12.26666667-66.34666666z"  horiz-adv-x="1024" />

    
    <glyph glyph-name="icon-chaxun" unicode="&#58930;" d="M771.010567 480.123244c0 194.228633-157.444868 351.723643-351.770716 351.723644-194.228633 0-351.675548-157.49501-351.675548-351.723644 0-194.23068 157.445892-351.724667 351.675548-351.724666 194.325847 0.001023 351.770715 157.49501 351.770716 351.724666zM419.239851 216.319c-145.671731 0-263.709077 118.085442-263.709077 263.805268 0 145.671731 118.037347 263.804245 263.709077 263.804244 145.769968 0 263.804245-118.132514 263.804245-263.804244 0-145.721873-118.034277-263.805268-263.804245-263.805268zM933.225065 71.230554L741.819734 262.636908c-27.53717-45.831838-66.071811-84.271312-112.003933-111.808482L821.319369-40.676166c30.946826-30.894637 81.060177-30.894637 111.904673 0 30.946826 30.848589 30.946826 81.060177 0.001023 111.90672z"  horiz-adv-x="1024" />

    
    <glyph glyph-name="zhongzhi" unicode="&#58887;" d="M828.52977778 294.49102222l120.57941333-36.73884444C893.56970667 74.66552889000002 723.46737778-58.59555554999997 522.24-58.59555554999997c-246.32433778 0-446.00888889 199.68455111-446.00888889 446.00888888s199.68455111 446.00888889 446.00888889 446.00888889c123.45116445 0 235.18776889-50.15665778 315.94382222-131.20284444l-87.19928889-87.19928889C692.89528889 673.98542222 612.12103111 710.54222222 522.80888889 710.54222222 345.92085333 710.54222222 202.52444445 567.14581333 202.52444445 390.25777778 202.52444445 213.36974222000003 345.92085333 69.97333332999995 522.80888889 69.97333332999995c143.52839111 0 265.00664889 94.41052445 305.72088889 224.51768889zM902.91768889 769.70325333L669.49802667 552.97024l260.06072888-36.73315555z"  horiz-adv-x="1024" />

    
    <glyph glyph-name="gengduogongneng" unicode="&#58903;" d="M90.125 805.875h374.99999991v-374.99999991H90.125V805.875z m93.75000019-93.75000019v-187.49999954h187.49999954V712.12499981H183.87500019zM90.125 337.12499991000004h374.99999991v-374.99999991H90.125V337.12499991000004z m93.75000019-93.75000018v-187.49999955h187.49999954V243.37499973H183.87500019zM558.87500009 805.875h374.99999991v-374.99999991H558.87500009V805.875z m93.75000018-93.75000019v-187.49999954h187.49999955V712.12499981H652.62500027zM746.37499963 337.12499991000004c103.54687537 0 187.50000037-83.953125 187.50000037-187.49999954s-83.953125-187.50000037-187.50000037-187.50000037-187.50000037 83.953125-187.49999954 187.50000037 83.953125 187.50000037 187.49999954 187.49999954z m0-93.75000018a93.75000019 93.75000019 0 1 1 0-187.49999955 93.75000019 93.75000019 0 0 1 0 187.49999955z"  horiz-adv-x="1024" />

    


  </font>
</defs>
</svg>
